/* XPM */
static char * rk_accents_db_p_active_push_close_xpm[] = {
"20 20 5 1",
" 	c None",
".	c #800033",
"+	c #D40055",
"@	c #AA0044",
"#	c #550022",
"....................",
"....................",
"....................",
"....+..........+....",
"...+++........+++...",
"....+++......+++....",
".....+++....+++.....",
"......+..@@..+......",
"........@..@........",
".......@.##.@.......",
".......@.##.@.......",
"........@..@........",
"......+..@@..+......",
".....+++....+++.....",
"....+++......+++....",
"...+++........+++...",
"....+..........+....",
"....................",
"....................",
"...................."};
