/* XPM */
static char * rk_accents_db_p_active_push_pin_xpm[] = {
"20 20 4 1",
" 	c None",
".	c #800033",
"+	c #D40055",
"@	c #550022",
"....................",
"....................",
"....................",
"...++++++..++++++...",
"...+....+..+....+...",
"...+.@@.+..+.@@.+...",
"...+.@@.+..+.@@.+...",
"...+....+..+....+...",
"...++++++..++++++...",
"....................",
"....................",
"...++++++..++++++...",
"...+....+..+....+...",
"...+.@@.+..+.@@.+...",
"...+.@@.+..+.@@.+...",
"...+....+..+....+...",
"...++++++..++++++...",
"....................",
"....................",
"...................."};
