/* XPM */
static char * rk_accents_db_p_active_unpin_xpm[] = {
"20 20 5 1",
" 	c None",
".	c #800033",
"+	c #550022",
"@	c #AA0044",
"#	c #D40055",
"....................",
"....................",
"..++++++++++++++++..",
"..+@@@@@@..@@@@@@+..",
"..+@++++@..@++++@+..",
"..+@+##+@..@+##+@+..",
"..+@+##+@..@+##+@+..",
"..+@++++@..@++++@+..",
"..+@@@@@@..@@@@@@+..",
"..+..............+..",
"..+..............+..",
"..+@@@@@@..@@@@@@+..",
"..+@++++@..@++++@+..",
"..+@+##+@..@+##+@+..",
"..+@+##+@..@+##+@+..",
"..+@++++@..@++++@+..",
"..+@@@@@@..@@@@@@+..",
"..++++++++++++++++..",
"....................",
"...................."};
