/* XPM */
static char * rk_accents_db_p_active_pin_xpm[] = {
"20 20 3 1",
" 	c None",
".	c #800033",
"+	c #AA0044",
"....................",
"....................",
"....................",
"...++++++..++++++...",
"...+....+..+....+...",
"...+....+..+....+...",
"...+....+..+....+...",
"...+....+..+....+...",
"...++++++..++++++...",
"....................",
"....................",
"...++++++..++++++...",
"...+....+..+....+...",
"...+.++.+..+....+...",
"...+.++.+..+....+...",
"...+....+..+....+...",
"...++++++..++++++...",
"....................",
"....................",
"...................."};
