/* XPM */
static char * rk_accents_db_p_active_minimize_push_xpm[] = {
"20 20 4 1",
" 	c None",
".	c #800033",
"+	c #550022",
"@	c #D40055",
"....................",
"....................",
"....................",
"...++++++++++++++...",
"...+............+...",
"...+............+...",
"...+............+...",
"...+............+...",
"...+............+...",
"...+............+...",
"...+............+...",
"...+............+...",
"................+...",
"...@@@@.........+...",
"...@..@.........+...",
"...@..@.........+...",
"...@@@@.+++++++++...",
"....................",
"....................",
"...................."};
