/* XPM */
static char * rk_accents_db_p_inactive_minimize_xpm[] = {
"20 20 3 1",
" 	c None",
".	c #0044AA",
"+	c #003380",
"....................",
"....................",
"....................",
"...++++++++++++++...",
"...+............+...",
"...+............+...",
"...+............+...",
"...+............+...",
"...+............+...",
"...+............+...",
"...+............+...",
"...+............+...",
"................+...",
"...++++.........+...",
"...+..+.........+...",
"...+..+.........+...",
"...++++.+++++++++...",
"....................",
"....................",
"...................."};
