/* XPM */
static char *window_inactive[] = {
/* columns rows colors chars-per-pixel */
"2 24 9 1 ",
"  c black",
". c #1C1C96",
"X c #2B5FAA",
"o c #2F46C8",
"O c #497FE6",
"+ c #816A81",
"@ c #7BACEC",
"# c #F0BECF",
"$ c #C6EBFF",
/* pixels */
"##",
"++",
"++",
"XX",
"  ",
" .",
". ",
"..",
"..",
"..",
"..",
"..",
"..",
"..",
"..",
"..",
"..",
"..",
"..",
"oo",
"OO",
"@@",
"$$",
".."
};
