/* XPM */
static char *window_active[] = {
/* columns rows colors chars-per-pixel */
"2 24 13 1 ",
"  c black",
". c #1C1C96",
"X c #2B5FAA",
"o c #2F46C8",
"O c #816A81",
"+ c #2F85C8",
"@ c #30ADD4",
"# c #7AECE6",
"$ c #F0BECF",
"% c #B1FFF5",
"& c #FFF2E9",
"* c #E0FFFB",
"= c white",
/* pixels */
"==",
"&&",
"$$",
"OO",
"  ",
" .",
". ",
"..",
"..",
"..",
"..",
"..",
"..",
"..",
"..",
"..",
"oo",
"XX",
"++",
"@@",
"##",
"%%",
"**",
".."
};
