/* XPM */
static char * btn_shade_a_push_xpm[] = {
"24 24 13 1",
" 	c None",
".	c #323C39",
"+	c #45283C",
"@	c #99E550",
"#	c #4B692F",
"$	c #9BADB7",
"%	c #CBDBFC",
"&	c #FFFFFF",
"*	c #3F3F74",
"=	c #222034",
"-	c #6ABE30",
";	c #639BFF",
">	c #696A6A",
".++++++++++++++++++++++@",
".#.#.#.#.#.#.#.#.#.#.#+@",
".+#.#.#.#.#.#.#.#.#.#.+@",
".#.#.#.#.#.#.#.#.#.#.#+@",
".+#.#.#.#.#.#.#.#.#.#.+@",
".+....................+@",
".+....................+@",
".+.$$$$$$$$$$$$$$$$$$.+@",
".+.$%&%&%&%&%&%&%&%&$*+@",
".+.$&&&&&&&&&&&&&&&&$*.@",
".==$&%&%&%&%&%&%&%&%$*.-",
"***$%%%%%%%%%%%%%%%%$*.;",
"*==$$$$$$$$$$$$$$$$$$*.;",
"*==$>$>$>$>$>$>$>$>$$*.;",
"*==$>>>>>>>>>>>>>>>>$*.;",
"*==$$$$$$$$$$$$$$$$$$*.;",
"*===******************.;",
"*====..................;",
"*=====.=.=.=.=.=.=.=.=.;",
"*======================;",
"*=*=*=*=*=*=*=*=*=*=*==;",
"*==*=*=*=*=*=*=*=*=*=*=;",
"*=*=*=*=*=*=*=*=*=*=*==;",
"*======================;"};
