/* XPM */
static char * gripper_short_a_xpm[] = {
"12 3 4 1",
" 	c None",
".	c #639BFF",
"+	c #5B6EE1",
"@	c #222034",
"............",
".++++++++++.",
"@@@@@@@@@@@@"};
