/* XPM */
static char *raceface_Shade_Act_Shaded_png[] = {
/* columns rows colors chars-per-pixel */
"24 24 14 1 ",
"  c #1C3771",
". c #26478F",
"X c #2B4B92",
"o c #3B64BD",
"O c #4E6390",
"+ c #436ABE",
"@ c #6783C2",
"# c #638BD0",
"$ c #578BFB",
"% c #7CA5FF",
"& c #A4C1FF",
"* c #BDD1FF",
"= c #DDE7FF",
"- c #DDF4FF",
/* pixels */
"==========------========",
"%%%%%%%%%%%%%%%%%%%%%%%%",
"**&&&&&&&&&&&&&&&&&&&&**",
"&%%@@@@@@@@@@@@@@@@@@%%&",
"%%@O                O@%%",
"%%@  $$$$$$$$$$$$$$  @%%",
"%%@ $%============%$ @%%",
"%%@ $%%%%%%%%%%%%%%$ @%%",
"$$@ $$$$$$$$$$$$$$$$ @$$",
"@@ .$++++++++++++++$. @@",
"  .. $%%%%%%%%%%%%$ ..  ",
"..XX.              .XX..",
"XXXXX..............XXXXX",
"XXXXXXXXXXXXXXXXXXXXXXXX",
"&&XXXXXXXXXXXXXXXXXXXX&&",
"%=&XXXXXoXoXoXoXoXXXX&=%",
"$$&XXXooooooooooooXXX&$$",
"$$&XXoo#o#o##o#o#ooXX&$$",
"$$&Xoo############ooX&$$",
"$$&=XXXXXXXXXXXXXXXX=&$$",
"$$$&&&&&&&&&&&&&&&&&&$$$",
"$$$$$$$$$$$$$$$$$$$$$$$$",
"$$$$$$$$$$$$$$$$$$$$$$$$",
"++++++++++++++++++++++++"
};
