/* XPM */
static char *raceface_LHalf_Act_Push_png[] = {
/* columns rows colors chars-per-pixel */
"24 24 15 1 ",
"  c #1C3771",
". c #193675",
"X c #26478F",
"o c #2B4B92",
"O c #3B64BD",
"+ c #4E6390",
"@ c #4366B2",
"# c #436ABE",
"$ c #6783C2",
"% c #638BD0",
"& c #578BFB",
"* c #7CA5FF",
"= c #A4C1FF",
"- c #BDD1FF",
"; c #DDE7FF",
/* pixels */
";;;;;;;;;;;;;;;;;;;;;;;;",
"************************",
"--====================--",
"=**$$$$$$$$$$$$$$$$$$**=",
"**$+                +$**",
"**$                  $**",
"**$  XXXXXXXXXXXXXX  $**",
"**$ XooooooooooooooX $**",
"&&$ Xoooo.oooooooooX $&&",
"$$ Xoooo..ooooooooooX $$",
"  Xoooo...oooooooooooX  ",
"XXoooo....ooooooooooooXX",
"oooooo@...oooooooooooooo",
"ooooooo@..oooooooooooooo",
"==oooooo@.oooooooooooo==",
"*;=oooooO@OoOoOoOoooo=;*",
"&&=oooOOOOOOOOOOOOooo=&&",
"&&=ooOO%O%O%%O%O%OOoo=&&",
"&&=oOO%%%%%%%%%%%%OOo=&&",
"&&=;oooooooooooooooo;=&&",
"&&&==================&&&",
"&&&&&&&&&&&&&&&&&&&&&&&&",
"&&&&&&&&&&&&&&&&&&&&&&&&",
"########################"
};
