/* XPM */
static char *raceface_RHalf_Inact_Over_png[] = {
/* columns rows colors chars-per-pixel */
"24 24 18 1 ",
"  c #331A25",
". c #242E46",
"X c #292A43",
"o c #014644",
"O c #0C4D72",
"+ c #144771",
"@ c #186676",
"# c #1E4788",
"$ c #146E84",
"% c #086EAF",
"& c #0367B3",
"* c #2B87B3",
"= c #2D88B3",
"- c #499BB3",
"; c #4D9EB3",
": c #55A4B3",
"> c #6EB4B3",
", c #8ECAB3",
/* pixels */
",,,,,,,,,,,,,,,,,,,,,,,,",
"========================",
">>::::::::::::::::::::>>",
":==@@@@@@@@@@@@@@@@@@==:",
"==@o                o@==",
"==@                  @==",
"==@  XXXXXXXX%%%%%X  @==",
"==@ X.......%%,,,%%X @==",
"%%@ X.......%=*;;=%X @%%",
"@@ X........%=&&==%.X @@",
"  X.........%%&&&%%..X  ",
"XX.........X%%####%X..XX",
"...........X%%###-%X....",
"...........X%%##-%%X....",
"::.........X%%#-%%%X..::",
"=,:.....+.+X%=-%%==X.:,=",
"%%:...+++++X%%===%%X.:%%",
"%%:..++$+$+X %%%%% X.:%%",
"%%:.++$$$$$$X     X+.:%%",
"%%:,.........XXXXX..,:%%",
"%%%::::::::::::::::::%%%",
"%%%%%%%%%%%%%%%%%%%%%%%%",
"%%%%%%%%%%%%%%%%%%%%%%%%",
"OOOOOOOOOOOOOOOOOOOOOOOO"
};
