/* XPM */
static char *raceface_Max_Act_Push_png[] = {
/* columns rows colors chars-per-pixel */
"24 24 17 1 ",
"  c #1C3771",
". c #17367A",
"X c #1F4496",
"o c #26478F",
"O c #2B4B92",
"+ c #3B64BD",
"@ c #4E6390",
"# c #4366B2",
"$ c #436ABE",
"% c #5D8CD6",
"& c #6783C2",
"* c #638BD0",
"= c #578BFB",
"- c #7CA5FF",
"; c #A4C1FF",
": c #BDD1FF",
"> c #DDE7FF",
/* pixels */
">>>>>>>>>>>>>>>>>>>>>>>>",
"------------------------",
"::;;;;;;;;;;;;;;;;;;;;::",
";--&&&&&&&&&&&&&&&&&&--;",
"--&@                @&--",
"--&                  &--",
"--&  oooooooooooooo  &--",
"--& oOO#.........OOo &--",
"==& oOOO#........OOo &==",
"&& oOOOOO#.......OOOo &&",
"  oOOOOOOO#......OOOOo  ",
"ooOOOOOOOOO#.....OOOOOoo",
"OOOOOOOOOOOO#....OOOOOOO",
"OOOOOOOOOOOOO#...OOOOOOO",
";;OOOOOOOOOOOO#..OOOOO;;",
"->;OOOOO+O+O+O+#XOOOO;>-",
"==;OOO++++++++++%+OOO;==",
"==;OO++*+*+**+*+*++OO;==",
"==;O++************++O;==",
"==;>OOOOOOOOOOOOOOOO>;==",
"===;;;;;;;;;;;;;;;;;;===",
"========================",
"========================",
"$$$$$$$$$$$$$$$$$$$$$$$$"
};
