/* XPM */
static char *raceface_Min_Inact_Push_png[] = {
/* columns rows colors chars-per-pixel */
"24 24 16 1 ",
"  c #331A25",
". c #38192E",
"X c #242E46",
"o c #292A43",
"O c #014644",
"+ c #0C4966",
"@ c #0C4D72",
"# c #144771",
"$ c #186676",
"% c #0E6F8A",
"& c #146E84",
"* c #086EAF",
"= c #2D88B3",
"- c #55A4B3",
"; c #6EB4B3",
": c #8ECAB3",
/* pixels */
"::::::::::::::::::::::::",
"========================",
";;--------------------;;",
"-==$$$$$$$$$$$$$$$$$$==-",
"==$O                O$==",
"==$                  $==",
"==$  oooooooooooooo  $==",
"==$ oXXXXXXXXXXXXXXo $==",
"**$ oXXXXXXXXXXXXXXo $**",
"$$ oXXXXXXXXXXXXXXXXo $$",
"  oXXXX.XXXXXXXXXXXXXo  ",
"ooXXXXX..XXXXXXXXXXXXXoo",
"XXXXXXX...XXXXXXXXXXXXXX",
"XXXXXXX....XXXXXXXXXXXXX",
"--XXXXX.....XXXXXXXXXX--",
"=:-XXXX+%+%+%X#X#XXXX-:=",
"**-XXX############XXX-**",
"**-XX##&#&#&&#&#&##XX-**",
"**-X##&&&&&&&&&&&&##X-**",
"**-:XXXXXXXXXXXXXXXX:-**",
"***------------------***",
"************************",
"************************",
"@@@@@@@@@@@@@@@@@@@@@@@@"
};
