/* XPM */
static char *btn_close_png[] = {
/* columns rows colors chars-per-pixel */
"24 24 32 1 ",
"  c #202937",
". c #212A38",
"X c #720B0C",
"o c #780C0D",
"O c #790C0D",
"+ c #7A0C0D",
"@ c #7B0C0D",
"# c #701B1F",
"$ c #701C1F",
"% c #771C20",
"& c #6D3C41",
"* c #6B5F66",
"= c #6D5F66",
"- c #696167",
"; c #6C6167",
": c #696168",
"> c #6B6168",
", c #6C6168",
"< c #68686F",
"1 c #890C0E",
"2 c #8B0D0F",
"3 c #931F22",
"4 c #921E23",
"5 c #921F23",
"6 c #941F22",
"7 c #803D44",
"8 c #803E44",
"9 c #813E44",
"0 c #823E44",
"q c #A0A0A7",
"w c #A0A1A8",
"e c white",
/* pixels */
"<....................e<q",
"<.<qqqqqqqqqqqqqqqqq.eq ",
"<.<qqqqqqqqqqqqqqqqq.eq ",
"<.<qqqqqqqqqqqqqqqqq.eq ",
"e.weeeeeeeeeeeeeeeee.ee<",
"<..<<<<<<<<<<<<<<<<<.w< ",
"<..<<<<<<<<<<<<<<<<<.w< ",
"<..<<<*&:<<<<:&*<<<<.w< ",
"<..<<<9o$-<<-$+7<<<<.w< ",
"<..<<<,6o$--$+6,<<<<.w< ",
"<..<<<<,5+$$+6;<<<<<.w< ",
"<..<<<<<,%XX%;<<<<<<.w< ",
"<..<<<<<-$+O$-<<<<<<.w< ",
"<..<<<<-$O64@#-<<<<<.w< ",
"<..<<<>$+4,,5o#><<<<.w< ",
"<..<<<823,<<,518<<<<.w< ",
"<..<<<=9,<<<<,0=<<<<.w< ",
"<..<<<<<<<<<<<<<<<<<.w< ",
"<..<<<<<<<<<<<<<<<<<.w< ",
"<....................w< ",
"<.<wwwwwwwwwwwwwwwww.w< ",
"<.weeeeeeeeeeeeeeeee.w< ",
"<<<<<<<<<<<<<<<<<<<<<<< ",
"<<<<<<<<<<<<<<<<<<<<<<<<"
};
