/* XPM */
static char *btn_shade_inactive_png[] = {
/* columns rows colors chars-per-pixel */
"24 24 39 1 ",
"  c #10151B",
". c #14161C",
"X c #1C181E",
"o c #251920",
"O c #281A21",
"+ c #2C1B22",
"@ c #311C23",
"# c #343437",
"$ c #5B090B",
"% c #64090B",
"& c #750808",
"* c #770908",
"= c #790B0D",
"- c #503A3E",
"; c #513B3E",
": c #523A3E",
"> c #533B3E",
", c #543B3F",
"< c #553B3F",
"1 c #5D3D41",
"2 c #643E43",
"3 c #693F44",
"4 c #505053",
"5 c #505054",
"6 c #535155",
"7 c gray50",
"8 c #950808",
"9 c #950909",
"0 c #970909",
"q c #9A0908",
"w c #9A0A0A",
"e c #9B0A0A",
"r c #8A2023",
"t c #A55457",
"y c #B77678",
"u c #868081",
"i c #8C8282",
"p c #918383",
"a c #BD8183",
/* pixels */
"##                    7#",
"4# #44444444444444444 74",
"4# #44444444444444444 74",
"4# #44444444444444444 74",
"77 6uipppppppppppppiu.77",
"## X--;>>,,,,,,,>>;--X5#",
"## o-;<12333333321<;-o5#",
"## +:>$%=rtyaytr=%$>:+5#",
"## +:>&*89qeweq08*&>:+5#",
"## o-;<12333333321<;-o5#",
"## X--;>>,,,,,,,>>;--X5#",
"## .XO@@@@@@@@@@@@@OX.5#",
"## #55555555555555555 5#",
"## 577777777777777777 5#",
"########################",
"########################",
"########################",
"########################",
"########################",
"########################",
"########################",
"########################",
"########################",
"########################"
};
