/* XPM */
static char *btn_close_hover_png[] = {
/* columns rows colors chars-per-pixel */
"24 24 88 1 ",
"  c #340505",
". c #350505",
"X c #202937",
"o c #212A38",
"O c #222A38",
"+ c #242B39",
"@ c #262B39",
"# c #282B3A",
"$ c #292C39",
"% c #2A2C39",
"& c #410607",
"* c #420607",
"= c #420B0E",
"- c #450C0D",
"; c #5E1012",
": c #630C0B",
"> c #650C0B",
", c #6E0B0B",
"< c #6A0A0C",
"1 c #7E0909",
"2 c #7D090A",
"3 c #761012",
"4 c #752529",
"5 c #762529",
"6 c #75262A",
"7 c #76262A",
"8 c #76282C",
"9 c #78282C",
"0 c #7F5A62",
"q c #68686F",
"w c #6A686F",
"e c #6C6970",
"r c #6D6970",
"t c #6E6970",
"y c #706A71",
"u c #716A71",
"i c #766B72",
"p c #7A6C73",
"a c #7C6C74",
"s c #7D6D74",
"d c #7E6D74",
"f c #7F6D74",
"g c #810B0D",
"h c #840B0D",
"j c #830F0E",
"k c #850F0E",
"l c #921213",
"z c #961414",
"x c #971515",
"c c #A41516",
"v c #A61516",
"b c #A51518",
"n c #A71519",
"m c #B31515",
"M c #B41515",
"N c #B91013",
"B c #B91113",
"V c #902B2F",
"C c #962C2F",
"Z c #AE3D3F",
"A c #B03E40",
"S c #9F4143",
"D c #815B63",
"F c #825C63",
"G c #805F67",
"H c #815F67",
"J c #835F67",
"K c #876067",
"L c #836068",
"P c #886068",
"I c #92646A",
"U c #95646B",
"Y c #96646B",
"T c #97666D",
"R c #9A646B",
"E c #9A646C",
"W c #806D75",
"Q c #917179",
"! c #B06971",
"~ c #B36972",
"^ c #B66971",
"/ c #B66A72",
"( c #B77279",
") c #C74145",
"_ c #C87174",
"` c #A0A0A7",
"' c #A0A1A8",
"] c white",
/* pixels */
"qoooooooooooooooooooo]q`",
"qoq`````````````````o]`X",
"qoq`````````````````o]`X",
"qoq`````````````````o]`X",
"]o']]]]]]]]]]]]]]]]]o]]q",
"qoowypsssaiiassspywqo'qX",
"qooepsdddssssdddspeqo'qX",
"qoorsdF9LWffWL8Ddsrqo'qX",
"qootsdC,3TQQT3<Vdstqo'qX",
"qoorsdPzgS((ShlKdsrqo'qX",
"qooeadWEcZ__AvRWdaeqo'qX",
"qoowisfQ/b))n^Qfsiwqo'qX",
"qoowisfQ!xNBx!Qfsiwqo'qX",
"qooeadWI;2mM1;IWdaeqo'qX",
"qoorsdH-&k~~j*=Gdsrqo'qX",
"qootsd7.>UQQY: 6dstqo'qX",
"qoorsd04JWffWJ50dsrqo'qX",
"qooepsddddssddddspeqo'qX",
"qoowupsssaiiassspuwqo'qX",
"qooO+@$%#@++@#%$@+Ooo'qX",
"qoq'''''''''''''''''o'qX",
"qo']]]]]]]]]]]]]]]]]o'qX",
"qqqqqqqqqqqqqqqqqqqqqqqX",
"qqqqqqqqqqqqqqqqqqqqqqqq"
};
