/* XPM */
static char *btn_maximize_push_png[] = {
/* columns rows colors chars-per-pixel */
"23 24 106 2 ",
"   c #190506",
".  c #230808",
"X  c #240808",
"o  c #250808",
"O  c #260809",
"+  c #280909",
"@  c #290909",
"#  c #3E0303",
"$  c #3F0303",
"%  c #360C0C",
"&  c #370C0D",
"*  c gray15",
"=  c #212A38",
"-  c #222A38",
";  c #262B39",
":  c #2F2D3A",
">  c #3B303D",
",  c #3F303E",
"<  c #4B0506",
"1  c #4E0404",
"2  c #4F0404",
"3  c #4F0505",
"4  c #570506",
"5  c #5A0402",
"6  c #5D0402",
"7  c #580605",
"8  c #5F0606",
"9  c #5E0706",
"0  c #5F0708",
"q  c #540B0B",
"w  c #560B0B",
"e  c #4B0F12",
"r  c #4C0F11",
"t  c #5F1113",
"y  c #650100",
"u  c #640707",
"i  c #600708",
"p  c #630708",
"a  c #610C0D",
"s  c #770000",
"d  c #790000",
"f  c #7A0B0B",
"g  c #620F10",
"h  c #630F10",
"j  c #601113",
"k  c #701719",
"l  c #7F1B1D",
"z  c #68686F",
"x  c #6C6970",
"c  c #716A71",
"v  c #7A6C73",
"b  c #7D6D74",
"n  c #820000",
"m  c #840000",
"M  c #890C0E",
"N  c #8F0C0E",
"B  c #930000",
"V  c #990200",
"C  c #9D0000",
"Z  c #910A0A",
"A  c #910B0A",
"S  c #910D0E",
"D  c #920D0E",
"F  c #801B1D",
"G  c #811B1D",
"H  c #A00000",
"J  c #A10000",
"K  c #A70400",
"L  c #AE0500",
"P  c #B30702",
"I  c #B10A07",
"U  c #B20A07",
"Y  c #B50804",
"T  c #BA0D0C",
"R  c #CB0000",
"E  c #D10100",
"W  c #D30100",
"Q  c #D30200",
"!  c #D40200",
"~  c #D40300",
"^  c #D60600",
"/  c #D80700",
"(  c #D90800",
")  c #DA0902",
"_  c #DC0B02",
"`  c #DC0B04",
"'  c #DE0D07",
"]  c #DA0F0A",
"[  c #DF0E09",
"{  c #C4100F",
"}  c #C91112",
"|  c #CC1617",
" . c #E00E0B",
".. c #E2110E",
"X. c #E21210",
"o. c #E31212",
"O. c #E61D1F",
"+. c #E61E20",
"@. c #CF2427",
"#. c #E93739",
"$. c #EC575B",
"%. c #EC5A5D",
"&. c #EF6E72",
"*. c #A0A1A8",
"=. c #F2878A",
"-. c white",
/* pixels */
"z = = = = = = = = = = = = = = = = = = = = -.z ",
"z = z * * * * * * * * * * * * * * * * * = -.* ",
"z = z * * * * * * * * * * * * * * * * * = -.* ",
"z = z * * * * * * * * * * * * * * * * * = -.* ",
"-.= *.x c v b b b b b b b b b b b v c x - -.-.",
"z = ;   . X o O + + + + + + + O o X .   ; *.z ",
"z = : . o @ % e k l G G G l k e % @ o . : *.z ",
"z = > X @ t a f M N S D S N M f a j @ X > *.z ",
"z = , o % q Z T { } | @.| } { T A w % o , *.z ",
"z = , O e 0 I ] X.O.%.&.%.O.X.] U i e O , *.z ",
"z = , + k p Y ' ..+.&.=.&.+...' Y u k + , *.z ",
"z = , + l 9 P _  .o.#.$.#.o. ._ P 8 l + , *.z ",
"z = , + l 4 L / ` [ ..X...[ ` / L 7 F + , *.z ",
"z = , + k 1 K ~ ^ ( ) _ ) ( ^ ~ K 2 k + , *.z ",
"z = , O r # V R E W Q ! Q W E R V $ r O , *.z ",
"z = , o & 3 y B C H H J H H C B y < & o , *.z ",
"z = > X @ h 5 s m m n m m m m d 6 g @ X > *.z ",
"z = : . o @ & r k F G G G l k e % @ o . : *.z ",
"z = ;   . X o O + + + + + + + O o X .   ; *.z ",
"z = - ; : > , , , , , , , , , , , > : ; - *.z ",
"z = z *.*.*.*.*.*.*.*.*.*.*.*.*.*.*.*.*.= *.z ",
"z = *.-.-.-.-.-.-.-.-.-.-.-.-.-.-.-.-.-.= *.z ",
"z z z z z z z z z z z z z z z z z z z z z z z ",
"z z z z z z z z z z z z z z z z z z z z z z z "
};
