/* XPM */
static char *btn_pin_hover_png[] = {
/* columns rows colors chars-per-pixel */
"24 24 5 1 ",
"  c #212A38",
". c #68686F",
"X c #A0A0A7",
"o c #A0A1A8",
"O c white",
/* pixels */
".......          O......",
"XXXXXX. .XXXXXXo OXXXXXX",
"XXXXXX. .XXXXXXo OXXXXXX",
"XXXXXX. .XXXXXXo OXXXXXX",
"OOOOOOO oOOOOOOO OOOOOOO",
".......  ....... o......",
".......  ....... o......",
".......  ....... o......",
".......  ....... o......",
".......  ....... o......",
".......  ....... o......",
".......  ....... o......",
".......          o......",
"....... .ooooooo o......",
"....... oOOOOOOO o......",
"........................",
"........................",
"........................",
"........................",
"........................",
"........................",
"........................",
"........................",
"........................"
};
