/* XPM */
static char *btn_minimize_inactive_png[] = {
/* columns rows colors chars-per-pixel */
"22 24 41 1 ",
"  c #10151B",
". c #11151B",
"X c #16161C",
"o c #1F181F",
"O c #2B1B21",
"+ c #311C23",
"@ c #343437",
"# c #353437",
"$ c #393538",
"% c #770A0C",
"& c #7B0B0B",
"* c #7E0B09",
"= c #7E0A0B",
"- c #780D0D",
"; c #740E10",
": c #41373A",
"> c #48383C",
", c #4B393D",
"< c #503A3E",
"1 c #513B3E",
"2 c #523A3E",
"3 c #533B3E",
"4 c #553B3F",
"5 c #73272A",
"6 c #74272C",
"7 c #74292E",
"8 c #5E3D41",
"9 c #623E42",
"0 c #505053",
"q c #505054",
"w c gray50",
"e c #960705",
"r c #930B0B",
"t c #950A0B",
"y c #AF0D09",
"u c #BB110F",
"i c #D81414",
"p c #9D4B4E",
"a c #BC4548",
"s c #BE7B7D",
"d c #DE8285",
/* pixels */
"                    w@",
" @00000000000000000 w0",
" @00000000000000000 w0",
" @00000000000000000 w0",
" qwwwwwwwwwwwwwwwww ww",
"  @@@@@@@@@@@@@@@@@ q@",
"  @@@@@@@@@@@@@@@@@ q@",
"  @@@@@@@@@@@@@@@@@ q@",
"  @@@@@@@@@@@@@@@@@ q@",
"  @@@#$:,<<<,:$#@@@ q@",
"  @@@$><21312<>$@@@ q@",
"  @@@:<1489841<:@@@ q@",
"  @@@,247psp742,@@@ q@",
"  @@@<18;ada;81<@@@ q@",
"  @@@<39&uiu%93<@@@ q@",
"  @@@<18-ryt-81<@@@ q@",
"  @@@,246*e=542,@@@ q@",
"  @@@:<1489841<:@@@ q@",
"  @@@$><21312<>$@@@ q@",
"     .XoO+++OoX.    q@",
" @qqqqqqqqqqqqqqqqq q@",
" qwwwwwwwwwwwwwwwww q@",
"@@@@@@@@@@@@@@@@@@@@@@",
"@@@@@@@@@@@@@@@@@@@@@@"
};
