/* XPM */
static char *btn_minimize_click_png[] = {
/* columns rows colors chars-per-pixel */
"30 30 61 1 ",
"  c #07080A",
". c #090A0B",
"X c #0E0F11",
"o c #0F1214",
"O c #111416",
"+ c #141618",
"@ c #161A1D",
"# c #1A1B1D",
"$ c #171C20",
"% c #1A1E21",
"& c #1C2126",
"* c #1E2328",
"= c #222324",
"- c #23262A",
"; c #26292C",
": c #292A2C",
"> c #2A2D32",
", c #2D3036",
"< c #333435",
"1 c #32363B",
"2 c #35383C",
"3 c #3E3E3E",
"4 c #363B40",
"5 c #3A3D43",
"6 c #3E4244",
"7 c #434343",
"8 c #41454A",
"9 c #454A4E",
"0 c #4B4B4B",
"q c #494C51",
"w c #4F5257",
"e c #545455",
"r c #51555A",
"t c #565A5E",
"y c #5C5C5C",
"u c #5B5D60",
"i c #5E6266",
"p c #636363",
"a c #64686B",
"s c #6B6B6B",
"d c #696D71",
"f c #6D7175",
"g c #747474",
"h c #717478",
"j c #7D7D7D",
"k c #838383",
"l c #8C8C8C",
"z c #919191",
"x c #9A9A9A",
"c c #A2A2A2",
"v c #ABABAB",
"b c #B2B2B2",
"n c #BBBBBB",
"m c #C4C4C4",
"M c #CACACA",
"N c #D6D6D6",
"B c #DCDCDC",
"V c #E5E5E5",
"C c #ECECEC",
"Z c #F4F4F4",
"A c #F9F9F9",
/* pixels */
"&&&&=+.=70000000000000000007: ",
"hhy=+O=<BAZAZZZZZZZZZZZZZAAb=#",
"ff&#+=:vZVVVVmxxxxxxxnCVVCCg==",
"se##==sVVNNNbzzzzzzzzzbNBVB3:<",
"a<#=O<vBMmmbkxmmmMmmvkzmMNn=<#",
"p=%+7:MMnbbjjvbbbbbvjjvbMMj:#w",
"u=O6:3nmvckslccccccjskcvnb7%q<",
"r=<;>3bbxlppkzzzzlsppzzvbx=7<<",
"q:=;:=cvzpeeykkjsyyegkkvci>>>,",
"0<=:+=jxxpe00yse000pggxxz==;>O",
"66=O2=7kks033333730yyskkw==-O5",
"56:,===0pse0007070000ssp===O4=",
"52,;==X=0ppe37777770ppp3=%O,**",
"&&&;+.#+=zCZVvzzzzvCAZz=O $OOO",
"&&&&=+XOO=gBCAVMMVAACc=O $OOO ",
"&&&&:#OX.+#=lBVCCCCVz=# $OOOX$",
"&&&&*;@.$XXO$7kvmmcs=+ #OOOX$O",
"&&&&&;&&OOO.@+%%==%+X #OOO.$OO",
"&&&&&&;&OO.$XXO +XOO $OOOX$OOo",
"&&&&&&&;=.$OOO.$OOX $OOOX$OOOX",
"&*&&&&&&;;OOO.$oOO $OOO $@OOX%",
"&&**&&&&*;-OX&OOO.$OOO.%OXO.%O",
"*&&&&&&&$*;;$OOO.$OOO.%OX@.#OO",
">>;,;,;,>>>,,*$X;$$$O=$$@X;#@#",
">>>,4,,*4*,,4>-*$%%X:%%%X;%#%X",
"44,4444444444444<-+,%%=X,===X,",
"544455555544555553222<<2<<,2<<",
"696669658855888588778878888888",
"r999qqqqqqqqqqqqqqqqqqqqqqqqqq",
"rrrrqrrrrrrqrrrqwwwwwwwwwwwwww"
};
