/* XPM */
static char *btn_pin_click_png[] = {
/* columns rows colors chars-per-pixel */
"30 30 64 1 ",
"  c #050607",
". c #060708",
"X c #070809",
"o c #0A0B0D",
"O c #0C0E11",
"+ c #0E1114",
"@ c #121316",
"# c #131619",
"$ c #1A1C1E",
"% c #1A1D21",
"& c #1C2127",
"* c #1E2329",
"= c #212325",
"- c #23262A",
"; c #25292C",
": c #2A2C2E",
"> c #262B30",
", c #282C32",
"< c #2C3035",
"1 c #323436",
"2 c #32363C",
"3 c #373A3C",
"4 c #383A3D",
"5 c #363B40",
"6 c #3A3D43",
"7 c #3E4144",
"8 c #424547",
"9 c #41454A",
"0 c #464A4D",
"q c #4A4C4E",
"w c #494D51",
"e c #4F5257",
"r c #505254",
"t c #52565B",
"y c #57595B",
"u c #595B5E",
"i c #5A5E61",
"p c #5F6265",
"a c #626263",
"s c #62656A",
"d c #64686B",
"f c #6A6C6C",
"g c #6B6F71",
"h c #747475",
"j c #707478",
"k c #767879",
"l c #7A7A7A",
"z c #7D7F80",
"x c #7D8184",
"c c #838384",
"v c #828588",
"b c #8A8B8B",
"n c #959595",
"m c #9C9C9C",
"M c #A3A3A3",
"N c #A7A7A8",
"B c #ABABAB",
"V c #B4B4B4",
"C c #BDBDBD",
"Z c #C4C4C4",
"A c #CBCBCB",
"S c LightGray",
"D c #DCDCDC",
"F c #E4E4E4",
/* pixels */
"##@%qCCCZCCCCCCZCZCCCZCCc@@O+e",
"w4peMBMMMMMMMMMMMMMMMMBbuq185b",
"3p0lCBBBBBBBBBBBBBBBBVMzq1q1wz",
"y0qCZVVVVVVVVVVVVVVVCCMr1q1=gj",
"88kSACCCCCCCCCCVCCCAAVz:q1::cf",
"87BDACCCCCCCCCCCCZZSAM1q1:=yga",
"4,DFZCCCCCCZCCZCCZFDZr81:==lii",
":rFFCVCCCCVCCCVCCFFAh41:=@aayy",
"84nmzlhzkkklkllznmba2,-=O5zeww",
":1MVmcccccccccbBVMz5--=@&s9www",
"::hBVbcccccccnVCNc5%=%+@wt9996",
":%4nVABnbccnVAZBk2%%$+@7t66666",
"$<=<fMCASSSSACmr>%%%O#5e555555",
"$#@@O:qfhcbchr$@OOXXO*5>&&&&&&",
"##@O@@+@O@+++o@OOXXO55&&&&&&&&",
"#@o#O+Oo@O+OXOOoXXO55%&&&&&&&&",
"Oo+oOoX+OXOXOXXXX*95%&&&&&&&&&",
"XoXXXXoXXXXXXXX%66>***&&&&&&&&",
"oXX  XXXXXOO#>66<***&&&&&&&&&&",
"=60wwwwwww0065>%%*%*&&&&&&&&&&",
"5;*&&&&&&&&&&&&&&&&&&&&&&&&&&&",
"*&*&&&&&&&&&&&&&&&&&&&&&&&&&&&",
"&&&&&&&&&&&&&&&&&&&&&&&&&&&&&&",
",,,,,,,,,,,>>>>>,,,,,,,,,,,,,,",
"<<<<,<<,,,,,5>,>5,5>5,,>,,,,,<",
"22225555555555555,555555555555",
"665566666655556666556666655566",
"999999779996w6w6066606069w6696",
"wwwwwwwwewwwwwwwwwwwwwwwwwwwww",
"tteeeeeeeeeeeeeeeeteeeeettwtee"
};
