/* XPM */
static char *btn_shade_click_png[] = {
/* columns rows colors chars-per-pixel */
"30 30 160 2 ",
"   c #0A0A0B",
".  c #0B0B0C",
"X  c #0B0C0C",
"o  c #0B0C0D",
"O  c #0C0C0D",
"+  c #0D0D0E",
"@  c #0F0F10",
"#  c #0F1010",
"$  c #0F1011",
"%  c #101011",
"&  c #121314",
"*  c #131414",
"=  c #131415",
"-  c #131416",
";  c #141415",
":  c #141515",
">  c #141516",
",  c #151516",
"<  c #151517",
"1  c #151617",
"2  c #161717",
"3  c #151618",
"4  c #161718",
"5  c #161818",
"6  c #171819",
"7  c #171919",
"8  c #17191A",
"9  c #181919",
"0  c #18191A",
"q  c #19191A",
"w  c #181A1B",
"e  c #191B1D",
"r  c #1A1B1C",
"t  c #1B1C1C",
"y  c #1C1D1D",
"u  c #1C1D1E",
"i  c #1C1E1F",
"p  c #1D1E1F",
"a  c #1E1F1F",
"s  c #181D22",
"d  c #191D22",
"f  c #191E23",
"g  c #1D1F20",
"h  c #1D1F21",
"j  c #1E1F20",
"k  c #1D1F22",
"l  c #1A1F24",
"z  c #1A1F25",
"x  c #1B1F25",
"c  c #1F2020",
"v  c #1E2021",
"b  c #1F2021",
"n  c #1B2025",
"m  c #1B2026",
"M  c #1D2024",
"N  c #1F2124",
"B  c #1C2127",
"V  c #202020",
"C  c #202021",
"Z  c gray13",
"A  c #202022",
"S  c #202123",
"D  c #222222",
"F  c #222223",
"G  c #232323",
"H  c #202224",
"J  c #202225",
"K  c #222324",
"L  c #232324",
"P  c #232425",
"I  c #222426",
"U  c #232426",
"Y  c #232526",
"T  c gray14",
"R  c #242425",
"E  c #252525",
"W  c #252626",
"Q  c #242627",
"!  c gray15",
"~  c #272727",
"^  c #212428",
"/  c #232628",
"(  c #242628",
")  c #252628",
"_  c #252729",
"`  c #25272A",
"'  c #26272A",
"]  c #272829",
"[  c #25282A",
"{  c #26292B",
"}  c #27292B",
"|  c #272A2C",
" . c #282828",
".. c #282829",
"X. c #28282B",
"o. c #282B2C",
"O. c #282A2D",
"+. c #292B2E",
"@. c #2B2D2F",
"#. c #2E2F2F",
"$. c #2B2C30",
"%. c #2B2D30",
"&. c #2B2E30",
"*. c #282C32",
"=. c #2C2E30",
"-. c #2C2F30",
";. c #2C2F31",
":. c #2E2F30",
">. c #2F3234",
",. c #2C3036",
"<. c #313335",
"1. c #333435",
"2. c #353638",
"3. c #32363C",
"4. c #373839",
"5. c #34383D",
"6. c #363A3D",
"7. c #373B3E",
"8. c #3A3D3F",
"9. c #3C3D3D",
"0. c #363B40",
"q. c #383C40",
"w. c #393D40",
"e. c #383C41",
"r. c #3A3D41",
"t. c #3A3D43",
"y. c #393E43",
"u. c #3C3E40",
"i. c #3D3F40",
"p. c #3A3F44",
"a. c #3E4042",
"s. c #3F4346",
"d. c #414142",
"f. c #404449",
"g. c #41454A",
"h. c gray31",
"j. c #494C51",
"k. c #4A4E53",
"l. c #4D5053",
"z. c #4F5257",
"x. c #505050",
"c. c #515151",
"v. c #505355",
"b. c #52565B",
"n. c #54575A",
"m. c #595D61",
"M. c #5E6266",
"N. c #626669",
"B. c #64686B",
"V. c #696D71",
"C. c #6D7175",
"Z. c #747474",
"A. c #777777",
"S. c #717478",
"D. c #7E7E7E",
"F. c gray71",
"G. c #B7B7B7",
"H. c #E7E7E7",
"J. c gray93",
"K. c #F3F3F3",
/* pixels */
"B B B B B B B B B B B B B B B B B B B B B B B B B B B B B B ",
"S.S.S.S.S.S.S.S.S.S.S.S.S.S.S.S.S.S.S.S.S.S.S.S.S.S.S.S.S.S.",
"C.C.C.C.C.C.C.C.C.C.C.C.C.C.C.C.C.C.C.C.C.C.C.C.C.C.C.C.C.C.",
"V.V.n.4...D D D D D D D D D D D D D D D D D D E 1.v.V.V.V.V.",
"B.i.a q O p = = ;   p : ; ;   b = , = . b = ; > % Z i.N.B.B.",
"a.y : . K 5 0 5 . P 6 7 7 X P 4 1 6 X Y 0 5 2 o p & t u.M.M.",
"G : + Q i j p @ ;.v p i % @.u g p $ &.i g i # o.r 8 * c l.m.",
"T + +.H ` _ > 7.| ` { < w.} _ [ < q.[ [ _ > 6.( I h + A 2.b.",
":.X.U ' =.9.x.c.c.c.c.c.c.c.c.c.c.c.c.c.c.c.c.h.d.9 $.4 E k.",
"8.R / O.#.D.F.G.G.G.G.G.G.G.G.G.G.G.G.G.G.G.G.F.D.4.H w D s.",
"f.<.) - ~ H.K.K.K.K.K.K.K.K.K.K.K.K.K.K.K.K.K.K.J.! J e C r.",
"p.e. .%.L h.Z.A.A.A.A.A.A.A.A.A.A.A.A.A.A.A.A.Z.h.L N $  .y.",
"0.0.5.-.L C V V V V V V V V V V V V V V V V V V b k 3 ] >.0.",
"B B B n M S F G G G G G G G G G G G G G G G G G T W Q ^ B B ",
"B B B m z f d s s s s s s s s s s s s s s s s d f z m B B B ",
"B B B B m n z l l l l l l l l l l l l l l l l z x m B B B B ",
"B B B B B B m m m m m m m m m m m m m m m m m m B B B B B B ",
"B B B B B B B B B B B B B B B B B B B B B B B B B B B B B B ",
"B B B B B B B B B B B B B B B B B B B B B B B B B B B B B B ",
"B B B B B B B B B B B B B B B B B B B B B B B B B B B B B B ",
"B B B B B B B B B B B B B B B B B B B B B B B B B B B B B B ",
"B B B B B B B B B B B B B B B B B B B B B B B B B B B B B B ",
"B B B B B B B B B B B B B B B B B B B B B B B B B B B B B B ",
"*.*.*.*.*.*.*.*.*.*.*.*.*.*.*.*.*.*.*.*.*.*.*.*.*.*.*.*.*.*.",
",.,.,.,.,.,.,.,.,.,.,.,.,.,.,.,.,.,.,.,.,.,.,.,.,.,.,.,.,.,.",
"3.3.3.3.3.3.3.3.3.3.3.3.3.3.3.3.3.3.3.3.3.3.3.3.3.3.3.3.3.3.",
"t.t.t.t.t.t.t.t.t.t.t.t.t.t.t.t.t.t.t.t.t.t.t.t.t.t.t.t.t.t.",
"g.g.g.g.g.g.g.g.g.g.g.g.g.g.g.g.g.g.g.g.g.g.g.g.g.g.g.g.g.g.",
"j.j.j.j.j.j.j.j.j.j.j.j.j.j.j.j.j.j.j.j.j.j.j.j.j.j.j.j.j.j.",
"z.z.z.z.z.z.z.z.z.z.z.z.z.z.z.z.z.z.z.z.z.z.z.z.z.z.z.z.z.z."
};
