/* XPM */
static char *btn_maximize_default_png[] = {
/* columns rows colors chars-per-pixel */
"30 30 54 1 ",
"  c #050506",
". c #060708",
"X c #090A0C",
"o c #0D0E10",
"O c #0F1114",
"+ c #111316",
"@ c #151719",
"# c #17191C",
"$ c #1A1B1D",
"% c #171C20",
"& c #1A1E21",
"* c #1E2023",
"= c #232425",
"- c #23262A",
"; c #26292D",
": c #2A2B2B",
"> c #2C2F33",
", c #2E3133",
"< c #333333",
"1 c #34373A",
"2 c #35383A",
"3 c #3B3B3C",
"4 c #383D41",
"5 c #3D4146",
"6 c #3F4348",
"7 c #444444",
"8 c #41454A",
"9 c #474A4E",
"0 c #4A4B4B",
"q c #494C51",
"w c #4F5257",
"e c #525253",
"r c #535659",
"t c #5A5A5A",
"y c #656565",
"u c #6C6C6C",
"i c #727272",
"p c #7D7D7D",
"a c #838383",
"s c #8A8A8A",
"d c #929292",
"f c #9B9B9B",
"g c #A3A3A3",
"h c #AAAAAA",
"j c #B4B4B4",
"k c #BDBDBD",
"l c gray76",
"z c #CBCBCB",
"x c #D4D4D4",
"c c #DADADA",
"v c gray89",
"b c gray92",
"n c #F3F3F3",
"m c gray99",
/* pixels */
" .. XX @70000000000000000007<X",
"$$o-###<isssaaasaasasssasaau*#",
"-+3----tsaappppappapaapppaae*-",
"#9<<,$<addssssssdassassssdd0-<",
"e322&7yggddddddddddddddddff<:$",
"332&e<gjgfffayyyyyyypffdghf=$e",
"22$w2ilkgggauyuuyuuyiafgjkp$03",
"<$w,<kxkggdiiiiiiiiiiphhzle3<<",
"#7<:ucchhhpiiiiiiiiiidhjcz*>;>",
"7:=<jbxhhfiiiiiiiiiiphhzvf--;%",
";;:<nnkhhpiiiiuiiiiufhhnbt--+4",
"-;$smnggduuiuuuuuiipggznc:*o4-",
"&o<zmxffiyuyyyuyyyydfgnna$o<&-",
"X&,uu033:::::::::::33eut-.&+++",
"&#3ui73:::::<:::::337uu7$&+++X",
"+&0sa77:::<70<:::<30iau-++++X%",
"+*ygf03<300007<<<70ifde$+++X%%",
"+$ihht3<<<:<<<<<30ihgy=O++X%++",
"X=ijjs03:<<<:<:30pjhp:OO+X&+++",
"&#tkkki00000000tfkjs=#o@X&+++X",
"++=kzzzhut00tifzzld=#OOo&+++X&",
"+o:pzxcxcccccccxzp=$oOo$+++X&+",
"oX#:pzcvvvvvccxhy:+++X$+++X&++",
"o;#@:0shlczlha0--++$.-$$%o-$$%",
"=&$+.;---===-$+-+$$o>$&&o>&$&o",
"-*-o;$#$.:$*$o:&$$+>&-&+>&*&o>",
"22<<<<,,<:<::<<<<<<3<<1<<3<23<",
"767785555557555688578888888888",
"qqqqqqq9090qq9qqqqqqqqqqqqqqqq",
"wwwwwwwwwwwwwwwwwewwrwwwwwwwww"
};
