/* XPM */
static char *btn_pin_default_png[] = {
/* columns rows colors chars-per-pixel */
"30 30 64 1 ",
"  c #050607",
". c #060708",
"X c #070809",
"o c #0A0B0D",
"O c #0C0E11",
"+ c #0E1114",
"@ c #121316",
"# c #131619",
"$ c #17181A",
"% c #1A1C1E",
"& c #1A1D21",
"* c #1C2127",
"= c #1E2329",
"- c #212325",
"; c #222629",
": c #25292C",
"> c #2A2C2E",
", c #262B30",
"< c #282C32",
"1 c #2C3035",
"2 c #323436",
"3 c #32363C",
"4 c #373A3C",
"5 c #393B3D",
"6 c #363B40",
"7 c #3A3D43",
"8 c #3E4144",
"9 c #424446",
"0 c #41454A",
"q c #46494C",
"w c #4A4C4E",
"e c #494D51",
"r c #4F5257",
"t c #515456",
"y c #53565A",
"u c #57595B",
"i c #5A5C5E",
"p c #5A5E61",
"a c #5F6265",
"s c gray39",
"d c #62656A",
"f c #65686A",
"g c #6B6F71",
"h c #727374",
"j c #707478",
"k c #7D7D7F",
"l c #7D8184",
"z c #858585",
"x c #828588",
"c c #8C8C8D",
"v c #8D8F90",
"b c #959696",
"n c #9E9E9E",
"m c #A5A5A5",
"M c #ACACAC",
"N c #B3B3B3",
"B c #B6B7B8",
"V c #BCBCBC",
"C c #C4C4C4",
"Z c #CCCCCC",
"A c #D4D4D4",
"S c gray86",
"D c #E4E4E4",
"F c #EFEFEF",
/* pixels */
"##@%uFFFFFFFFFFFFFFFFFFFB@@O@r",
"e5atADSSSSSSSSSSSSSSSSSVgw294c",
"4aqcSAZZZAZAZAZZZZZZAACbw2w2el",
"iqeCZVVVVVBVVVVVVVVVZCNt2w2-gg",
"99hCBMMMMMMMMMMMMMMBVMh>w2>>zf",
"88cBmmnnnnnnnnnnnnMNMc>w2>-ugs",
"8:nmcczczzzzzzzzzcnnz892>->ksp",
":tDDBBBBBVVVVBVBVDDCh52>-@usry",
"9wADNMMMMMMMMMMNSDCx4<;-#6derr",
">2VSBnmmnmnmmnmZSCb7;;&+*dre00",
">:kBZbcccccccnCZBc6&-%@$rr0000",
":-5cMVmczkzcmCVmg6&&%+@9r77777",
"%1->icnMMMNMMnz9,&&&O#6r766666",
"%##@o-5wusssu9$@+oXXo<6=******",
"##@O$@@@@$@O@o@oooXo66=*******",
"+@o#o@OX@O@oo@ooXX+66*********",
"+o+XOOX+oooXooXXX*e6&*********",
"XoXXXXXXooXoXXX&77,*&*********",
"oX.X.XXXoXOO#,77<*************",
"-8qeeeeeeeee76,***************",
"6<****************************",
"******************************",
"*********************&********",
"<<<<<<<<<<<<<<<<=6,,,6,,<<<<<<",
"11116<<,<,11<<6<6*,6<6<<<<<6<<",
"333366666666666<6666666661<666",
"886888777766777777667777776677",
"888888887e77000007770000e7e700",
"reee8reereeeeeeeeeeeeeeeeeeeee",
"yyrrryrrrrrrrrrrrrrrrrrrrrrrrr"
};
