/* XPM */
static char *titlebar_bg_hover_png[] = {
/* columns rows colors chars-per-pixel */
"3 30 20 1 ",
"  c #1C2127",
". c #282C32",
"X c #2C3036",
"o c #32363C",
"O c #363B40",
"+ c #3A3D43",
"@ c #3A3F44",
"# c #404449",
"$ c #41454A",
"% c #454A4E",
"& c #494C51",
"* c #4B4F54",
"= c #4F5257",
"- c #52565B",
"; c #595D61",
": c #5E6266",
"> c #64686B",
", c #696D71",
"< c #6D7175",
"1 c #717478",
/* pixels */
"   ",
"111",
"<<<",
",,,",
">>>",
":::",
";;;",
"---",
"***",
"%%%",
"###",
"@@@",
"OOO",
"   ",
"   ",
"   ",
"   ",
"   ",
"   ",
"   ",
"   ",
"   ",
"   ",
"...",
"XXX",
"ooo",
"+++",
"$$$",
"&&&",
"==="
};
