/* XPM */
static char *raceface_LHalf_Inact_Push_png[] = {
/* columns rows colors chars-per-pixel */
"24 24 14 1 ",
"  c #131D4C",
". c #1D1D4C",
"X c #1F1D4C",
"o c #551D4C",
"O c #651D4C",
"+ c #6F1D4C",
"@ c #B03A24",
"# c #B0481A",
"$ c #B0693C",
"% c #B05848",
"& c #B07F5A",
"* c #B0A475",
"= c #B0B48A",
"- c #B0CE81",
/* pixels */
"------------------------",
"&&&&&&&&&&&&&&&&&&&&&&&&",
"==********************==",
"*&&$$$$$$$$$$$$$$$$$$&&*",
"&&$#                #$&&",
"&&$                  $&&",
"&&$  ..............  $&&",
"&&$ ................ $&&",
"%%$ ..... .......... $%%",
"$$ .....  ........... $$",
"  .....   ............  ",
"......    ..............",
"......o   ..............",
".......o  ..............",
"**......o ............**",
"&-*.....OoO.O.O.O....*-&",
"%%*...OOOOOOOOOOOO...*%%",
"%%*..OO+O+O++O+O+OO..*%%",
"%%*.OO++++++++++++OO.*%%",
"%%*-................-*%%",
"%%%******************%%%",
"%%%%%%%%%%%%%%%%%%%%%%%%",
"%%%%%%%%%%%%%%%%%%%%%%%%",
"@@@@@@@@@@@@@@@@@@@@@@@@"
};
