/* XPM */
static char *raceface_Max_Act_Norm_png[] = {
/* columns rows colors chars-per-pixel */
"24 24 16 1 ",
"  c #3C0000",
". c #6E0000",
"X c #FF3D70",
"o c #FF5770",
"O c #FF6566",
"+ c #FF519C",
"@ c #FF7594",
"# c #FF8688",
"$ c #FF9EA3",
"% c #FF9CA6",
"& c #FFBFAE",
"* c #FFD0B3",
"= c #FFDBBD",
"- c #FFC1C1",
"; c #FFD1D6",
": c BlanchedAlmond",
/* pixels */
"::::::::::::::::::::::::",
"%%%%%%%%%%%%%%%%%%%%%%%%",
";;--------------------;;",
"-%%##################%%-",
"%%#O                O#%%",
"%%#  @@@@@@@@@@@@@@  #%%",
"%%# @@::::::::::::@@ #%%",
"%%# @&&=$$$$$$$$$&&@ #%%",
"@@# @%%%*++++++++%%@ #@@",
"## .@%%%%*+++++++%%@. ##",
"  ..@@%%%%*++++++%@@..  ",
"....@@@@@@@&XXXXX@@@....",
"....@@@@@@@@&XXXX@@@....",
"....@@@@@@@@@&XXX@@@....",
"--..@@@@@@@@@@&XX@@@..--",
"%:-.@@@@@@@@@@@&X@@@.-:%",
"@@-.@%@@@@@@@@@@&@%@.-@@",
"@@-.@%%%%%%%%%%%%%%@.-@@",
"@@-..@@@@@@@@@@@@@@..-@@",
"@@-:................:-@@",
"@@@------------------@@@",
"@@@@@@@@@@@@@@@@@@@@@@@@",
"@@@@@@@@@@@@@@@@@@@@@@@@",
"oooooooooooooooooooooooo"
};
