/* XPM */
static char *raceface_Max_Act_Push_png[] = {
/* columns rows colors chars-per-pixel */
"24 24 14 1 ",
"  c #3C0000",
". c #420000",
"X c #6C0000",
"o c #A40000",
"O c #B40000",
"+ c #BE0000",
"@ c #FF5770",
"# c #FF6566",
"$ c #FF7594",
"% c #FF8688",
"& c #FF9CA6",
"* c #FFC1C1",
"= c #FFD1D6",
"- c BlanchedAlmond",
/* pixels */
"------------------------",
"&&&&&&&&&&&&&&&&&&&&&&&&",
"==********************==",
"*&&%%%%%%%%%%%%%%%%%%&&*",
"&&%#                #%&&",
"&&%                  %&&",
"&&%  XXXXXXXXXXXXXX  %&&",
"&&% XXXo.........XXX %&&",
"$$% XXXXo........XXX %$$",
"%% XXXXXXo.......XXXX %%",
"  XXXXXXXXo......XXXXX  ",
"XXXXXXXXXXXo.....XXXXXXX",
"XXXXXXXXXXXXo....XXXXXXX",
"XXXXXXXXXXXXXo...XXXXXXX",
"**XXXXXXXXXXXXo..XXXXX**",
"&-*XXXXXOXOXOXOoXXXXX*-&",
"$$*XXXOOOOOOOOOO+OXXX*$$",
"$$*XXOO+O+O++O+O+OOXX*$$",
"$$*XOO++++++++++++OOX*$$",
"$$*-XXXXXXXXXXXXXXXX-*$$",
"$$$******************$$$",
"$$$$$$$$$$$$$$$$$$$$$$$$",
"$$$$$$$$$$$$$$$$$$$$$$$$",
"@@@@@@@@@@@@@@@@@@@@@@@@"
};
