/* XPM */
static char *raceface_Min_Inact_Push_png[] = {
/* columns rows colors chars-per-pixel */
"24 24 15 1 ",
"  c #0D1D4C",
". c #131D4C",
"X c #1D1D4C",
"o c #1F1D4C",
"O c #551D4C",
"+ c #651D4C",
"@ c #6F1D4C",
"# c #B03A24",
"$ c #B0481A",
"% c #B0693C",
"& c #B05848",
"* c #B07F5A",
"= c #B0A475",
"- c #B0B48A",
"; c #B0CE81",
/* pixels */
";;;;;;;;;;;;;;;;;;;;;;;;",
"************************",
"--====================--",
"=**%%%%%%%%%%%%%%%%%%**=",
"**%$................$%**",
"**%..................%**",
"**%..XXXXXXXXXXXXXX..%**",
"**%.XXXXXXXXXXXXXXXX.%**",
"&&%.XXXXXXXXXXXXXXXX.%&&",
"%%.XXXXXXXXXXXXXXXXXX.%%",
"..XXXXX XXXXXXXXXXXXXX..",
"XXXXXXX  XXXXXXXXXXXXXXX",
"XXXXXXX   XXXXXXXXXXXXXX",
"XXXXXXX    XXXXXXXXXXXXX",
"==XXXXX     XXXXXXXXXX==",
"*;=XXXXO@O@O@X+X+XXXX=;*",
"&&=XXX++++++++++++XXX=&&",
"&&=XX++@+@+@@+@+@++XX=&&",
"&&=X++@@@@@@@@@@@@++X=&&",
"&&=;XXXXXXXXXXXXXXXX;=&&",
"&&&==================&&&",
"&&&&&&&&&&&&&&&&&&&&&&&&",
"&&&&&&&&&&&&&&&&&&&&&&&&",
"########################"
};
