/* XPM */
static char *raceface_Close_Act_Push_png[] = {
/* columns rows colors chars-per-pixel */
"24 24 14 1 ",
"  c #3C0000",
". c #420000",
"X c #6C0000",
"o c #A40000",
"O c #B40000",
"+ c #BE0000",
"@ c #FF5770",
"# c #FF6566",
"$ c #FF7594",
"% c #FF8688",
"& c #FF9CA6",
"* c #FFC1C1",
"= c #FFD1D6",
"- c BlanchedAlmond",
/* pixels */
"------------------------",
"&&&&&&&&&&&&&&&&&&&&&&&&",
"==********************==",
"*&&%%%%%%%%%%%%%%%%%%&&*",
"&&%#                #%&&",
"&&%                  %&&",
"&&%  XXXXXXXXXXXXXX  %&&",
"&&% XXX..XXXXXX..XXX %&&",
"$$% XXXo..XXXX..oXXX %$$",
"%% XXXXXo..XX..oXXXXX %%",
"  XXXXXXXo....oXXXXXXX  ",
"XXXXXXXXXX....XXXXXXXXXX",
"XXXXXXXXXX....XXXXXXXXXX",
"XXXXXXXXX..oo..XXXXXXXXX",
"**XXXXXX..oXXo..XXXXXX**",
"&-*XXXX.XoOXOX+.XXXXX*-&",
"$$*XXXO++OOOOOO++OXXX*$$",
"$$*XXOO+O+O++O+O+OOXX*$$",
"$$*XOO++++++++++++OOX*$$",
"$$*-XXXXXXXXXXXXXXXX-*$$",
"$$$******************$$$",
"$$$$$$$$$$$$$$$$$$$$$$$$",
"$$$$$$$$$$$$$$$$$$$$$$$$",
"@@@@@@@@@@@@@@@@@@@@@@@@"
};
