/* XPM */
static char *raceface_LHalf_Inact_Over_png[] = {
/* columns rows colors chars-per-pixel */
"24 24 17 1 ",
"  c #131D4C",
". c #1D1D4C",
"X c #1F1D4C",
"o c #651D4C",
"O c #6F1D4C",
"+ c #B01E25",
"@ c #B03A24",
"# c #B0481A",
"$ c #B0693C",
"% c #B0324F",
"& c #B05848",
"* c #B07F5A",
"= c #B08155",
"- c #B0A262",
"; c #B0A475",
": c #B0B48A",
"> c #B0CE81",
/* pixels */
">>>>>>>>>>>>>>>>>>>>>>>>",
"************************",
"::;;;;;;;;;;;;;;;;;;;;::",
";**$$$$$$$$$$$$$$$$$$**;",
"**$#                #$**",
"**$                  $**",
"**$  .&&&&&........  $**",
"**$ .&&>>>&&........ $**",
"&&$ .&*--=*&........ $&&",
"$$ ..&**%%*&......... $$",
"  ...&&%%%&&..........  ",
".....&++++&&............",
".....&-+++&&............",
".....&&-++&&............",
";;...&&&-+&&..........;;",
"*>;..&*&&-*&..o.o....;>*",
"&&;..&&***&&.ooooo...;&&",
"&&;.. &&&&& .oOoOoo..;&&",
"&&;.oo     .OOOOOOoo.;&&",
"&&;>................>;&&",
"&&&;;;;;;;;;;;;;;;;;;&&&",
"&&&&&&&&&&&&&&&&&&&&&&&&",
"&&&&&&&&&&&&&&&&&&&&&&&&",
"@@@@@@@@@@@@@@@@@@@@@@@@"
};
