/* XPM */
static char *raceface_Close_Inact_Over_png[] = {
/* columns rows colors chars-per-pixel */
"24 24 15 1 ",
"  c #131D4C",
". c #1D1D4C",
"X c #B02024",
"o c #B03A24",
"O c #B0481A",
"+ c #B0693C",
"@ c #B03450",
"# c #B05848",
"$ c #B07F5A",
"% c #B0A061",
"& c #B0B367",
"* c #B0A475",
"= c #B0C66F",
"- c #B0B48A",
"; c #B0CE81",
/* pixels */
";;;;;;;;;;;;;;;;;;;;;;;;",
"$$$$$$$$$$$$$$$$$$$$$$$$",
"--********************--",
"*$$++++++++++++++++++$$*",
"$$+O                O+$$",
"$$+                  +$$",
"$$+  .############.  +$$",
"$$+ .##==;;;;;;==##. +$$",
"##+ .#$&@@$$$$@@&$#. +##",
"++ ..#$$&@@$$@@&$$#.. ++",
"  ...##$$&@@@@&$$##...  ",
".....#####XXXX#####.....",
".....#####XXXX#####.....",
".....####XX%%XX####.....",
"**...###XX%##%XX###...**",
"$;*..#$XX%####%XX$#..*;$",
"##*..##&&$$$$$$&&##..*##",
"##*.. ############ ..*##",
"##*...            ...*##",
"##*;................;*##",
"###******************###",
"########################",
"########################",
"oooooooooooooooooooooooo"
};
