/* XPM */
static char *raceface_Header_Inact_png[] = {
/* columns rows colors chars-per-pixel */
"4 24 9 1 ",
"  c #131D4C",
". c #1D1D4C",
"X c #B03A24",
"o c #B0693C",
"O c #B05848",
"+ c #B07F5A",
"@ c #B0A475",
"# c #B0B48A",
"$ c #B0CE81",
/* pixels */
"$$$$",
"++++",
"####",
"@@@@",
"++++",
"++++",
"++++",
"++++",
"OOOO",
"oooo",
"    ",
"....",
"....",
"....",
"@@@@",
"++++",
"OOOO",
"OOOO",
"OOOO",
"OOOO",
"OOOO",
"OOOO",
"OOOO",
"XXXX"
};
