/* XPM */
static char *raceface_Empty_Act_Push_png[] = {
/* columns rows colors chars-per-pixel */
"24 24 12 1 ",
"  c #3C0000",
". c #6C0000",
"X c #B40000",
"o c #BE0000",
"O c #FF5770",
"+ c #FF6566",
"@ c #FF7594",
"# c #FF8688",
"$ c #FF9CA6",
"% c #FFC1C1",
"& c #FFD1D6",
"* c BlanchedAlmond",
/* pixels */
"************************",
"$$$$$$$$$$$$$$$$$$$$$$$$",
"&&%%%%%%%%%%%%%%%%%%%%&&",
"%$$##################$$%",
"$$#+                +#$$",
"$$#                  #$$",
"$$#  ..............  #$$",
"$$# ................ #$$",
"@@# ................ #@@",
"## .................. ##",
"  ....................  ",
"........................",
"........................",
"........................",
"%%....................%%",
"$*%.....X.X.X.X.X....%*$",
"@@%...XXXXXXXXXXXX...%@@",
"@@%..XXoXoXooXoXoXX..%@@",
"@@%.XXooooooooooooXX.%@@",
"@@%*................*%@@",
"@@@%%%%%%%%%%%%%%%%%%@@@",
"@@@@@@@@@@@@@@@@@@@@@@@@",
"@@@@@@@@@@@@@@@@@@@@@@@@",
"OOOOOOOOOOOOOOOOOOOOOOOO"
};
