/* XPM */
static char *raceface_Shade_Act_Over_png[] = {
/* columns rows colors chars-per-pixel */
"24 24 10 1 ",
"  c #3C0000",
". c #6C0000",
"X c #FF5770",
"o c #FF6566",
"O c #FF7594",
"+ c #FF8688",
"@ c #FF9CA6",
"# c #FFC1C1",
"$ c #FFD1D6",
"% c BlanchedAlmond",
/* pixels */
"%%%%%%%%%%%%%%%%%%%%%%%%",
"@@@@@@@@@@@@@@@@@@@@@@@@",
"$$####################$$",
"#@@++++++++++++++++++@@#",
"@@+o                o+@@",
"@@+                  +@@",
"@@+  .OOOOOOOOOOOO.  +@@",
"@@+ .OO%%%%%%%%%%OO. +@@",
"OO+ .O@@@@@@@@@@@@O. +OO",
"++ ..O@@@@@@@@@@@@O.. ++",
"  ...OO@@@@@@@@@@OO...  ",
".....OOOOOOOOOOOOOO.....",
".....OOOOOOOOOOOOOO.....",
".....OOOOOOOOOOOOOO.....",
"##...OOOOOOOOOOOOOO...##",
"@%#..O@OOOOOOOOOO@O..#%@",
"OO#..OO@@@@@@@@@@OO..#OO",
"OO#.. OOOOOOOOOOOO ..#OO",
"OO#...            ...#OO",
"OO#%................%#OO",
"OOO##################OOO",
"OOOOOOOOOOOOOOOOOOOOOOOO",
"OOOOOOOOOOOOOOOOOOOOOOOO",
"XXXXXXXXXXXXXXXXXXXXXXXX"
};
