/* XPM */
static char *raceface_RHalf_Act_Over_png[] = {
/* columns rows colors chars-per-pixel */
"24 24 16 1 ",
"  c #3C0000",
". c #6C0000",
"X c #B40000",
"o c #BE0000",
"O c #FF3B71",
"+ c #FF5770",
"@ c #FF6566",
"# c #FF4F9B",
"$ c #FF7594",
"% c #FF8688",
"& c #FF9EA1",
"* c #FF9CA6",
"= c #FFBFAE",
"- c #FFC1C1",
"; c #FFD1D6",
": c BlanchedAlmond",
/* pixels */
"::::::::::::::::::::::::",
"************************",
";;--------------------;;",
"-**%%%%%%%%%%%%%%%%%%**-",
"**%@                @%**",
"**%                  %**",
"**%  ........$$$$$.  %**",
"**% ........$$:::$$. %**",
"$$% ........$*&==*$. %$$",
"%% .........$*##**$.. %%",
"  ..........$$###$$...  ",
"............$$OOOO$.....",
"............$$OOO=$.....",
"............$$OO=$$.....",
"--..........$$O=$$$...--",
"*:-.....X.X.$*=$$**..-:*",
"$$-...XXXXX.$$***$$..-$$",
"$$-..XXoXoX. $$$$$ ..-$$",
"$$-.XXoooooo.     .X.-$$",
"$$-:................:-$$",
"$$$------------------$$$",
"$$$$$$$$$$$$$$$$$$$$$$$$",
"$$$$$$$$$$$$$$$$$$$$$$$$",
"++++++++++++++++++++++++"
};
