/* XPM */
static char *raceface_Shade_Inact_Shaded_png[] = {
/* columns rows colors chars-per-pixel */
"24 24 13 1 ",
"  c #240E07",
". c #27180C",
"X c #34022B",
"o c #0F2C27",
"O c #40300B",
"+ c #5C341C",
"@ c #6E4D16",
"# c #19524D",
"$ c #B06C19",
"% c #805821",
"& c #B09124",
"* c #B0D137",
"= c #B0A555",
/* pixels */
"************************",
"$$$$$$$$$$$$$$$$$$$$$$$$",
"==&&&&&&&&&&&&&&&&&&&&==",
"&$$@@@@@@@@@@@@@@@@@@$$&",
"$$@OXXXXXXXXXXXXXXXXO@$$",
"$$@XX%%%%%%%%%%%%%%XX@$$",
"$$@X%$************$%X@$$",
"$$@X%$$$$$$$$$$$$$$%X@$$",
"%%@X%%%%%%%%%%%%%%%%X@%%",
"@@X %++++++++++++++% X@@",
"XX  X%$$$$$$$$$$$$%X  XX",
"  .. XXXXXXXXXXXXXX ..  ",
".....              .....",
"........................",
"&&....................&&",
"$*&.....o.o.o.o.o....&*$",
"%%&...oooooooooooo...&%%",
"%%&..oo#o#o##o#o#oo..&%%",
"%%&.oo############oo.&%%",
"%%&*................*&%%",
"%%%&&&&&&&&&&&&&&&&&&%%%",
"%%%%%%%%%%%%%%%%%%%%%%%%",
"%%%%%%%%%%%%%%%%%%%%%%%%",
"++++++++++++++++++++++++"
};
