/* XPM */
static char *raceface_LHalf_Act_Over_png[] = {
/* columns rows colors chars-per-pixel */
"24 24 18 1 ",
"  c #1B1F21",
". c #2B2B45",
"X c #283540",
"o c #404973",
"O c #BC4119",
"+ c #AB5130",
"@ c #FF541D",
"# c #CF752B",
"$ c #8F4D57",
"% c #BD6A62",
"& c #EA9425",
"* c #FF8933",
"= c #E7B53E",
"- c #F0B541",
"; c #FFAE70",
": c #686F99",
"> c #FFEE83",
", c #FFC2A1",
/* pixels */
">>>>>>>>>>>>>>>>>>>>>>>>",
"************************",
",,;;;;;;;;;;;;;;;;;;;;,,",
";**%%%%%%%%%%%%%%%%%%**;",
"**%$                $%**",
"**%                  %**",
"**%  .#####........  %**",
"**% .##>>>##XXXXXXX. %**",
"##% .#*--&*#XXXXXXX. %##",
"%% .X#**@@*#XXXXXXXX. %%",
"  .XX##@@@##XXXXXXXXX.  ",
"..XX.#OOOO##.XXXXXXXXX..",
"XXXX.#=OOO##.XXXXXXXXXXX",
"XXXX.##=OO##.XXXXXXXXXXX",
";;XX.###=O##.XXXXXXXXX;;",
"*>;X.#*##=*#.XoXoXXXX;>*",
"##;X.##***##.oooooXXX;##",
"##;X. ##### .o:o:ooXX;##",
"##;Xoo     .::::::ooX;##",
"##;>XX.....XXXXXXXXX>;##",
"###;;;;;;;;;;;;;;;;;;###",
"########################",
"########################",
"++++++++++++++++++++++++"
};
