/* XPM */
static char *raceface_Close_Inact_Over_png[] = {
/* columns rows colors chars-per-pixel */
"24 24 16 1 ",
"  c #240E07",
". c #27180C",
"X c #34022B",
"o c #40300B",
"O c #5C341C",
"+ c #6A242F",
"@ c #6E4D16",
"# c #B0372B",
"$ c #B06C19",
"% c #805821",
"& c #98980E",
"* c #B0AD02",
"= c #B09124",
"- c #B0CA0C",
"; c #B0D137",
": c #B0A555",
/* pixels */
";;;;;;;;;;;;;;;;;;;;;;;;",
"$$$$$$$$$$$$$$$$$$$$$$$$",
"::====================::",
"=$$@@@@@@@@@@@@@@@@@@$$=",
"$$@oXXXXXXXXXXXXXXXXo@$$",
"$$@XXXXXXXXXXXXXXXXXX@$$",
"$$@XX %%%%%%%%%%%% XX@$$",
"$$@X %%--;;;;;;--%% X@$$",
"%%@X %$*##$$$$##*$% X@%%",
"@@X .%$$*##$$##*$$%. X@@",
"XX ..%%$$*####*$$%%.. XX",
"  .. %%%%%++++%%%%% ..  ",
".... %%%%%++++%%%%% ....",
".... %%%%++&&++%%%% ....",
"==.. %%%++&%%&++%%% ..==",
"$;=. %$++&%%%%&++$% .=;$",
"%%=. %%**$$$$$$**%% .=%%",
"%%=. X%%%%%%%%%%%%X .=%%",
"%%=.. XXXXXXXXXXXX ..=%%",
"%%=;..            ..;=%%",
"%%%==================%%%",
"%%%%%%%%%%%%%%%%%%%%%%%%",
"%%%%%%%%%%%%%%%%%%%%%%%%",
"OOOOOOOOOOOOOOOOOOOOOOOO"
};
