/* XPM */
static char *raceface_Max_Act_Over_png[] = {
/* columns rows colors chars-per-pixel */
"24 24 17 1 ",
"  c #1B1F21",
". c #2B2B45",
"X c #283540",
"o c #B9411D",
"O c #AB5130",
"+ c #FF5421",
"@ c #CF752B",
"# c #8F4D57",
"$ c #BD6A62",
"% c #FF8933",
"& c #E7B53E",
"* c #FFAE70",
"= c #FFCA4A",
"- c #FFE758",
"; c #FFEE83",
": c #FFC2A1",
"> c #FFF7BB",
/* pixels */
";;;;;;;;;;;;;;;;;;;;;;;;",
"%%%%%%%%%%%%%%%%%%%%%%%%",
"::********************::",
"*%%$$$$$$$$$$$$$$$$$$%%*",
"%%$#                #$%%",
"%%$                  $%%",
"%%$  .@@@@@@@@@@@@.  $%%",
"%%$ .@@>---------@@. $%%",
"@@$ .@%%=++++++++%@. $@@",
"$$ .X@%%%=+++++++%@X. $$",
"  .XX@@%%%=++++++@@XX.  ",
"..XX.@@@@@@&ooooo@@.XX..",
"XXXX.@@@@@@@&oooo@@.XXXX",
"XXXX.@@@@@@@@&ooo@@.XXXX",
"**XX.@@@@@@@@@&oo@@.XX**",
"%;*X.@%@@@@@@@@&o%@.X*;%",
"@@*X.@@%%%%%%%%%=@@.X*@@",
"@@*X. @@@@@@@@@@@@ .X*@@",
"@@*XX.            .XX*@@",
"@@*;XX............XX;*@@",
"@@@******************@@@",
"@@@@@@@@@@@@@@@@@@@@@@@@",
"@@@@@@@@@@@@@@@@@@@@@@@@",
"OOOOOOOOOOOOOOOOOOOOOOOO"
};
