/* XPM */
static char *raceface_Min_Act_Over_png[] = {
/* columns rows colors chars-per-pixel */
"24 24 14 1 ",
"  c #1B1F21",
". c #2B2B45",
"X c #283540",
"o c #B9411D",
"O c #AB5130",
"+ c #FF5421",
"@ c #CF752B",
"# c #8F4D57",
"$ c #BD6A62",
"% c #FF8933",
"& c #E7B53E",
"* c #FFAE70",
"= c #FFEE83",
"- c #FFC2A1",
/* pixels */
"========================",
"%%%%%%%%%%%%%%%%%%%%%%%%",
"--********************--",
"*%%$$$$$$$$$$$$$$$$$$%%*",
"%%$#                #$%%",
"%%$                  $%%",
"%%$  .@@@@@@@@@@@@.  $%%",
"%%$ .@@==========@@. $%%",
"@@$ .@%%%%%%%%%%%%@. $@@",
"$$ .X@%%%%%%%%%%%%@X. $$",
"  .XX@@+%%%%%%%%%@@XX.  ",
"..XX.@@oo@@@@@@@@@@.XX..",
"XXXX.@@ooo@@@@@@@@@.XXXX",
"XXXX.@@oooo@@@@@@@@.XXXX",
"**XX.@@ooooo@@@@@@@.XX**",
"%=*X.@%&&&&&&@@@@%@.X*=%",
"@@*X.@@%%%%%%%%%%@@.X*@@",
"@@*X. @@@@@@@@@@@@ .X*@@",
"@@*XX.            .XX*@@",
"@@*=XX............XX=*@@",
"@@@******************@@@",
"@@@@@@@@@@@@@@@@@@@@@@@@",
"@@@@@@@@@@@@@@@@@@@@@@@@",
"OOOOOOOOOOOOOOOOOOOOOOOO"
};
