/* XPM */
static char *raceface_Max_Act_Norm_png[] = {
/* columns rows colors chars-per-pixel */
"24 24 18 1 ",
"  c #1B1F21",
". c #2B2B45",
"X c #283540",
"o c #B9411D",
"O c #AB5130",
"+ c #FF5421",
"@ c #CF752B",
"# c #8F4D57",
"$ c #BD6A62",
"% c #E9942A",
"& c #FF8933",
"* c #E7B53E",
"= c #F0B541",
"- c #FFAE70",
"; c #FFCA4A",
": c #F7DD5E",
"> c #FFEE83",
", c #FFC2A1",
/* pixels */
">>>>>>>>>>>>>>>>>>>>>>>>",
"&&&&&&&&&&&&&&&&&&&&&&&&",
",,--------------------,,",
"-&&$$$$$$$$$$$$$$$$$$&&-",
"&&$#                #$&&",
"&&$  @@@@@@@@@@@@@@  $&&",
"&&$ @@>>>>>>>>>>>>@@ $&&",
"&&$ @==:%%%%%%%%%==@ $&&",
"@@$ @&&&;++++++++&&@ $@@",
"$$ .@&&&&;+++++++&&@. $$",
"  .X@@&&&&;++++++&@@X.  ",
"..XX@@@@@@@*ooooo@@@XX..",
"XXXX@@@@@@@@*oooo@@@XXXX",
"XXXX@@@@@@@@@*ooo@@@XXXX",
"--XX@@@@@@@@@@*oo@@@XX--",
"&>-X@@@@@@@@@@@*o@@@X->&",
"@@-X@&@@@@@@@@@@*@&@X-@@",
"@@-X@&&&&&&&&&&&&&&@X-@@",
"@@-XX@@@@@@@@@@@@@@XX-@@",
"@@->XX............XX>-@@",
"@@@------------------@@@",
"@@@@@@@@@@@@@@@@@@@@@@@@",
"@@@@@@@@@@@@@@@@@@@@@@@@",
"OOOOOOOOOOOOOOOOOOOOOOOO"
};
