/* XPM */
static char *window_inactive[] = {
/* columns rows colors chars-per-pixel */
"24 24 13 1 ",
"  c #C8C1C8",
". c #D3C4CE",
"X c #C6CAD9",
"o c #E6C6D4",
"O c #F4C6D4",
"+ c #F7CDD7",
"@ c #CEDAE9",
"# c #D6F1F7",
"$ c #FBE0E4",
"% c #FCEBEA",
"& c #FAFBE9",
"* c #E0FAF3",
"= c #FEF8F4",
/* pixels */
"*****#=%%%%%%%%%%$&*****",
"####@+OOOOOOOOOOo*######",
"###@+OOOOOOOOOOo*#######",
"##@+OOOOOOOOOOo*########",
"#@+OOOOOOOOOOo*#########",
"@+OOOOOOOOOOo*##########",
"+OOOOOOOOOOo*##########@",
"OOOOOOOOOOo*##########@+",
"OOOOOOOOOo*##########@+O",
"OOOOOOOOo*##########@+OO",
"OOOOOOOo*##########@+OOO",
"OOOOOOo*##########@+OOOO",
"OOOOOo*##########@+OOOOO",
"oooo.#@@@@@@@@@@X+oooooo",
"ooo.#@@@@@@@@@@X+ooooooo",
"oo.#@@@@@@@@@@X+oooooooo",
"o.#@@@@@@@@@@X+ooooooooo",
".#@@@@@@@@@@X+oooooooooo",
"#@@@@@@@@@@X+oooooooooo.",
"@@@@@@@@@@X+oooooooooo.#",
"@@@@@@@@@X+oooooooooo.#@",
"@@@@@@@@X+oooooooooo.#@@",
"@@@@@@@X+oooooooooo.#@@@",
"XXXXXXXo.......... @XXXX"
};
