/* XPM */
static char *btn_pin_a_xcf[] = {
/* columns rows colors chars-per-pixel */
"24 24 6 1 ",
"  c #37502C",
". c #492141",
"X c #842267",
"o c #66B923",
"O c #A2F501",
"+ c #BC1C9C",
/* pixels */
"XXXXXXXXXXXXXXXXXXXXXXXX",
"X+++++++++++++++++++++++",
"X+++++++++++++++++++++++",
"X+++++++++++++++++++++++",
"X+++++++++++++++++++++++",
"XXXXXXXXXXXXXXXXXXXXXXXX",
"XXXXXXXXXXXXXXXXXXXXXXXX",
"XXXXXXX..........XXXXXXX",
"XXXXXXX.++++++++.XXXXXXX",
"XXXXXXX.+XXXXXX+.XXXXXXX",
"........X......X........",
"OOOOOOO oOOOOOOo OOOOOOO",
"ooooooo OooooooO ooooooo",
"ooooooo OooooooO ooooooo",
"ooooooo OooooooO ooooooo",
"ooooooo OOOOOOOO ooooooo",
"ooooooo          ooooooo",
"oooooooooooooooooooooooo",
"oooooooooooooooooooooooo",
"oooooooooooooooooooooooo",
"oooooooooooooooooooooooo",
"oOOOOOOOOOOOOOOOOOOOOOOO",
"oOOOOOOOOOOOOOOOOOOOOOOO",
"oooooooooooooooooooooooo"
};
