/* XPM */
static char *btn_unpin_i_xcf[] = {
/* columns rows colors chars-per-pixel */
"24 24 11 1 ",
"  c #10120E",
". c #1A1416",
"X c #212818",
"o c #2F1128",
"O c #54103E",
"+ c #3E4E24",
"@ c #555927",
"# c #641C52",
"$ c #66B923",
"% c #A2F501",
"& c #BC1C9C",
/* pixels */
"OOOOOOOOOOOOOOOOOOOOOOOO",
"O&&&&&&&&&&&&&&&&&&&&&&&",
"O#######################",
"O#######################",
"O#######################",
"OOOOOOOOOOOOOOOOOOOOOOOO",
"OOOOOOOOOOOOOOOOOOOOOOOO",
"OOOOOOOooooooooooOOOOOOO",
"OOOOOOOo........oOOOOOOO",
"OOOOOOOo.O&&&&O.oOOOOOOO",
"oooooooo.oooooo.oooooooo",
"@@@@@@@X +%%%%+ X@@@@@@@",
"+++++++X X$$$$X X+++++++",
"+++++++X X++++X X+++++++",
"+++++++X XXXXXX X+++++++",
"+++++++X        X+++++++",
"+++++++XXXXXXXXXX+++++++",
"++++++++++++++++++++++++",
"++++++++++++++++++++++++",
"++++++++++++++++++++++++",
"++++++++++++++++++++++++",
"+@@@@@@@@@@@@@@@@@@@@@@@",
"+%%%%%%%%%%%%%%%%%%%%%%%",
"++++++++++++++++++++++++"
};
