/* XPM */
static char *btn_shade_i_push_xcf[] = {
/* columns rows colors chars-per-pixel */
"24 24 19 1 ",
"  c #10120E",
". c #1A1416",
"X c #12181C",
"o c #192416",
"O c #212818",
"+ c #2F1128",
"@ c #1C3030",
"# c #292523",
"$ c #2F252D",
"% c #54103E",
"& c #37502C",
"* c #555927",
"= c #641C52",
"- c #492141",
"; c #4D3D40",
": c #625250",
"> c #76546E",
", c #A2F501",
"< c #BC1C9C",
/* pixels */
".XXXXXXXXXXXXXXXXXXXXXX=",
"#-#-#-#-#-#-#-#-#-#-#-@<",
".X+.+.+.+.+.+.+.+.+.+.X=",
".+.+.+.+.+.+.+.+.+.+.+X=",
".X+.+.+.+.+.+.+.+.+.+.X=",
".X....................X=",
".X....................X=",
".X.;;;;;;;;;;;;;;;;;;.X=",
".X.;:>:>:>:>:>:>:>:>;OX=",
".X.;>>>>>>>>>>>>>>>>;O.=",
".  ;>:>:>:>:>:>:>:>:;O.%",
"OOO;::::::::::::::::;O.*",
"O  ;;;;;;;;;;;;;;;;;;O.*",
"O  ;$;$;$;$;$;$;$;$;;O.*",
"O  ;$$$$$$$$$$$$$$$$;O.*",
"O  ;;;;;;;;;;;;;;;;;;O.*",
"O   OOOOOOOOOOOOOOOOOO.*",
"O    ..................*",
"O     . . . . . . . . .*",
"O                      *",
"O O O O O O O O O O O  *",
"O  O O O O O O O O O O *",
"&o&o&o&o&o&o&o&o&o&o&oo,",
"O                      *"
};
