/* XPM */
static char *btn_max_i_push_xcf[] = {
/* columns rows colors chars-per-pixel */
"24 24 10 1 ",
"  c #10120E",
". c #1A1416",
"X c #212818",
"o c #2F1128",
"O c #54103E",
"+ c #3E4E24",
"@ c #555927",
"# c #641C52",
"$ c #A2F501",
"% c #BC1C9C",
/* pixels */
"OOOOOOOOOOOOOOOOOOOOOOOO",
"%%%%%%%%%%%%%%%%%%%%%%%%",
"########################",
"########################",
"######oooooooooooo######",
"OOOOOo............oOOOOO",
"OOOOo..o.o.o.o.o.o.oOOOO",
"OOOOo.o%%%%%%%%%%..oOOOO",
"OOOOo...OOOOOOOOO..oOOOO",
"OOOOo....OOOOOOOO..oOOOO",
"ooooo.....ooooooo..ooooo",
"@@@@X      @@@@@@  X@@@@",
"++++X       +++++  X++++",
"++++X        ++++  X++++",
"++++X         +++  X++++",
"++++X          ++  X++++",
"++++X  X X X X X+X X++++",
"++++X X X X X X X  X++++",
"+++++X            X+++++",
"++++++XXXXXXXXXXXX++++++",
"++++++++++++++++++++++++",
"@@@@@@@@@@@@@@@@@@@@@@@@",
"$$$$$$$$$$$$$$$$$$$$$$$$",
"++++++++++++++++++++++++"
};
