/* XPM */
static char *btn_unshade_i_xcf[] = {
/* columns rows colors chars-per-pixel */
"24 24 15 1 ",
"  c #10120E",
". c #192416",
"X c #212818",
"o c #2F1128",
"O c #2F252D",
"+ c #54103E",
"@ c #37502C",
"# c #555927",
"$ c #641C52",
"% c #492141",
"& c #4D3D40",
"* c #625250",
"= c #76546E",
"- c #A2F501",
"; c #BC1C9C",
/* pixels */
"o$++++++++++++++++++++o$",
"%;;;;;;;;;;;;;;;;;;;;;%;",
"o$$$$$$$$$$$$$$$$$$$$$o$",
"o$$$$$$$$$$$$$$$$$$$$$o$",
"o$$$$$$$$$$$$$$$$$$$$$o$",
"o$++++++++++++++++++++o$",
"o$++++++++++++++++++++o$",
"o$++++++++++++++++++++o$",
"o$++++++++++++++++++++o$",
"o$++++++++++++++++++++o$",
"o+ooooooooooooooooooooo+",
"XXXXXXXXXXXXXXXXXXXXXXX#",
"X                      #",
"X  &&&&&&&&&&&&&&&&&&  #",
"X  &*=*=*=*=*=*=*=*=&  #",
"X  &================&  #",
"X  &=*=*=*=*=*=*=*=*&  #",
"X  &****************&  #",
"X  &&&&&&&&&&&&&&&&&&  #",
"X  &O&O&O&O&O&O&O&O&&  #",
"X X&OOOOOOOOOOOOOOOO&  #",
"X  &&&&&&&&&&&&&&&&&&X #",
"@.@.@.@.@.@.@.@.@.@.@..-",
"X                      #"
};
