/* XPM */
static char *btn_shade_i_xcf[] = {
/* columns rows colors chars-per-pixel */
"24 24 20 1 ",
"  c #10120E",
". c #1A1416",
"X c #12181C",
"o c #212818",
"O c #2F1128",
"+ c #1C3030",
"@ c #292523",
"# c #2F252D",
"$ c #54103E",
"% c #3E4E24",
"& c #37502C",
"* c #555927",
"= c #641C52",
"- c #492141",
"; c #4D3D40",
": c #625250",
"> c #76546E",
", c #A2F501",
"< c #868862",
"1 c #BC1C9C",
/* pixels */
".XXXXXXXXXXXXXXXXXXXXXX=",
"@-@<<<<<<<<<<<<<<<<<<-+1",
".XO;:>:>:>:>:>:>:>:>;.X=",
".O.;>>>>>>>>>>>>>>>>;OX=",
".XO;>:>:>:>:>:>:>:>:;.X=",
".X.;::::::::::::::::;.X=",
".X.;;;;;;;;;;;;;;;;;;.X=",
".X.;#;#;#;#;#;#;#;#;;.X=",
".X.;################;.X=",
".X.;;;;;;;;;;;;;;;;;;.X=",
".                      $",
"o%*******************%o*",
"o*%%%%%%%%%%%%%%%%%%%%o*",
"o*%%%%%%%%%%%%%%%%%%%%o*",
"o*%%%%%%%%%%%%%%%%%%%%o*",
"o*%%%%%%%%%%%%%%%%%%%%o*",
"o*%%%%%%%%%%%%%%%%%%%%o*",
"o*%%%%%%%%%%%%%%%%%%%%o*",
"o*%%%%%%%%%%%%%%%%%%%%o*",
"o*%%%%%%%%%%%%%%%%%%%%o*",
"o*%%%%%%%%%%%%%%%%%%%%o*",
"o*********************o*",
"&,,,,,,,,,,,,,,,,,,,,,&,",
"o*%%%%%%%%%%%%%%%%%%%%o*"
};
