/* XPM */
static char *btn_max_i_xcf[] = {
/* columns rows colors chars-per-pixel */
"24 24 8 1 ",
"  c #212818",
". c #2F1128",
"X c #54103E",
"o c #3E4E24",
"O c #555927",
"+ c #641C52",
"@ c #A2F501",
"# c #BC1C9C",
/* pixels */
"XXXXXXXXXXXXXXXXXXXXXXXX",
"########################",
"++++++++++++++++++++++++",
"++++++++++++++++++++++++",
"++++++............++++++",
"XXXXX.############.XXXXX",
"XXXX.#XXXXXXXXXXXX#.XXXX",
"XXXX.#X#.........X#.XXXX",
"XXXX.#XX#........X#.XXXX",
"XXXX.#XXX#.......X#.XXXX",
".....X....#.......X.....",
"OOOO o@@@OO@     @o OOOO",
"oooo Ooooooo@    oO oooo",
"oooo Oooooooo@   oO oooo",
"oooo Ooooooooo@  oO oooo",
"oooo Oooooooooo@ oO oooo",
"oooo Ooooooooooo@oO oooo",
"oooo OooooooooooooO oooo",
"ooooo OOOOOOOOOOOO ooooo",
"oooooo            oooooo",
"oooooooooooooooooooooooo",
"OOOOOOOOOOOOOOOOOOOOOOOO",
"@@@@@@@@@@@@@@@@@@@@@@@@",
"oooooooooooooooooooooooo"
};
