/* XPM */
static char *btn_pin_hover_png[] = {
/* columns rows colors chars-per-pixel */
"30 30 135 2 ",
"   c #050607",
".  c #060708",
"X  c #070809",
"o  c #0A0B0D",
"O  c #0C0E11",
"+  c #0E1114",
"@  c #121316",
"#  c #131619",
"$  c #191B1D",
"%  c #1A1D21",
"&  c #1C2127",
"*  c #1E2329",
"=  c #212325",
"-  c #232629",
";  c #25292C",
":  c #2A2C2E",
">  c #2E302F",
",  c #33342F",
"<  c #39372D",
"1  c #262B30",
"2  c #282C32",
"3  c #2C3035",
"4  c #323436",
"5  c #373833",
"6  c #32363C",
"7  c #36393B",
"8  c #393A3C",
"9  c #533C02",
"0  c #664500",
"q  c #694700",
"w  c #765100",
"e  c #7E5700",
"r  c #785A00",
"t  c #715B16",
"y  c #7F6309",
"u  c #4C4836",
"i  c #716130",
"p  c #7F6B30",
"a  c #273E4F",
"s  c #363B40",
"d  c #3A3D43",
"f  c #3E4144",
"g  c #3F515E",
"h  c #434545",
"j  c #494843",
"k  c #41454A",
"l  c #464A4D",
"z  c #494C4E",
"x  c #444C52",
"c  c #494D51",
"v  c #4F5257",
"b  c #52565B",
"n  c #57595B",
"m  c #585B5F",
"M  c #5E5C54",
"N  c #645D45",
"B  c #68655C",
"V  c #6C695F",
"C  c #5A5E61",
"Z  c #5F6265",
"A  c #5D6C7A",
"S  c #62656A",
"D  c #65686A",
"F  c #767266",
"G  c #7A7669",
"H  c #6B6F71",
"J  c #707478",
"K  c #797B7E",
"L  c #815D00",
"P  c #846100",
"I  c #8C6E07",
"U  c #896B08",
"Y  c #936C00",
"T  c #9D7400",
"R  c #A47D03",
"E  c #AD7F00",
"W  c #826D31",
"Q  c #8F7835",
"!  c #8B7536",
"~  c #A58107",
"^  c #AE8000",
"/  c #B38C06",
"(  c #A3893C",
")  c #A98E3F",
"_  c #91865E",
"`  c #AC9140",
"'  c #BB9D45",
"]  c #BFA147",
"[  c #958960",
"{  c #AC9E6E",
"}  c #BEAD79",
"|  c #C2B27C",
" . c #3F6682",
".. c #276794",
"X. c #386A90",
"o. c #2D75A8",
"O. c #387EAF",
"+. c #4F6C81",
"@. c #447DA8",
"#. c #7D8184",
"$. c #4782AE",
"%. c #4980A9",
"&. c #5B81A2",
"*. c #4985B3",
"=. c #5F95BE",
"-. c #638FB4",
";. c #6490B6",
":. c #6897BD",
">. c #6A98BF",
",. c #7E9EB8",
"<. c #789BB8",
"1. c #6198C0",
"2. c #6A9EC4",
"3. c #828588",
"4. c #898B8E",
"5. c #83939E",
"6. c #93A6B3",
"7. c #9BAFBD",
"8. c #9BB0BD",
"9. c #A4A4A4",
"0. c #A1A9AB",
"q. c gray66",
"w. c #A7AFB1",
"e. c gray69",
"r. c #87A9C6",
"t. c #8AADCA",
"y. c #9FB4C2",
"u. c #97B6D0",
"i. c #A8BECD",
"p. c #ACC1CF",
"a. c #B9C1C4",
"s. c #BCC5C8",
"d. c #BFC8CB",
"f. c #C1CACD",
"g. c #CBCBCB",
/* pixels */
"# # @ % a 2.2.2.2.2.2.2.2.2.2.2.2.2.2.2.2.2.2.1.X.% # o @ v ",
"c 8 Z c $.O.o.o.o.o.o.o.o.o.o.o.o.o.o.o.o.o.o...x x 6 k 8 4.",
"7 C z +.;.*.$.$.$.$.$.$.$.$.$.$.@.@.@.@.*.@.@.+.l 4 c ; v #.",
"m l x <.2.-.-.-.-.-.-.-.-.-.-.-.;.;.1.;.2.2.@.v 4 c 4 ; H H ",
"k h A u.t.6.,.,.,.,.,.,.,.,.,.,.r.<.5.r.r.<.H : l , : > 3.S ",
"f f 5.p.7.6.6.6.6.6.6.6.6.6.6.6.6.6.y.i.y.5.3 l 4 4 = n H Z ",
"8 3 a.f.0.0.0.0.0.0.0.0.0.0.0.0.0.w.f.s.0.c h , ; = ; K Z m ",
": v g.g.0.9.9.9.9.9.9.9.9.9.9.9.9.g.g.e.S d , : % # m S b b ",
"h < e L q 0 q q 0 0 0 0 0 q 0 q L L w 9 6 ; ; = # s S c c c ",
"3 2 T ^ Y L L r L r L y r P L R R R e 6 ; ; = @ & S v l l l ",
"2 : t ~ / U P y y y P y P I / / R L < = = $ @ # v b k k l k ",
": $ 5 ! ` ' ( Q W p p Q ` ] ' ( i , % % # @ @ f b d d d d d ",
"% 2 = : N _ { } } | | | } { [ u ; % # # O @ s v s s s s s s ",
"% # # @ O - j M D F G F D u # # O @ @ . O ; s ; & & & & & & ",
"# # @ O # @ @ @ o # O # O o # O O . . O 3 s & & & & & & & & ",
"# + o # O @ o o @ O O O o O O o . . @ d s & & & & & & & & & ",
"+ X + o o o o O o o O . O . o . . - c s % & & & & & & & & & ",
". O X X o X o X . . . o o . . # d d ; & & & & & & & & & & & ",
"o . . X   X X . . . o o # ; f k ; & & & & & & & & & & & & & ",
"* d l z c c c c v x x x k 6 ; & & & & & & & & & & & & & & & ",
"d 1 & & * * % * & & & & & & & & * * * * & & & & & & & & & & ",
"& & & & * * & & & & & & & & & & % * % * & & & & & & & & & & ",
"& & & & & & & & & & & & & & % & * * * % * % & & & & & & & & ",
"1 2 2 1 1 1 1 1 2 2 2 2 2 2 2 2 2 2 2 2 2 2 2 2 2 2 2 2 2 2 ",
"3 3 3 3 3 3 3 2 3 3 3 3 2 2 2 2 s 2 s 1 2 2 3 2 2 2 2 2 3 3 ",
"s 6 s 3 6 6 s 6 s 3 s s s s s s s 2 s s s s s s s s s s 3 s ",
"d d d d d d d d d d s s d d d d d d s s d d d d d d s d d d ",
"x f x f k k k k k k k k k k k k k k d d k k k k k k k k k k ",
"x c c c c c c c x c c c c c x c x x x v x x c c x c c c c c ",
"v v v v v v v v v v v v v v v v v b v v v v v v v v v v v v "
};
