/* XPM */
static char *btn_minimize_default_png[] = {
/* columns rows colors chars-per-pixel */
"30 30 61 1 ",
"  c #07080A",
". c #090A0B",
"X c #0E0F11",
"o c #0F1214",
"O c #111416",
"+ c #141618",
"@ c #161A1D",
"# c #1A1B1D",
"$ c #171C20",
"% c #1A1E21",
"& c #1C2126",
"* c #1E2328",
"= c #222324",
"- c #23262A",
"; c #26292C",
": c #292A2C",
"> c #2A2D32",
", c #2D3036",
"< c #333435",
"1 c #32363B",
"2 c #35383C",
"3 c #3D3D3D",
"4 c #363B40",
"5 c #3A3D43",
"6 c #3E4244",
"7 c #444445",
"8 c #41454A",
"9 c #454A4E",
"0 c #4B4B4B",
"q c #494C51",
"w c #4F5257",
"e c #555556",
"r c #51555A",
"t c #565A5E",
"y c #5C5C5C",
"u c #5B5D60",
"i c #5E6266",
"p c #636363",
"a c #64686B",
"s c #6B6B6B",
"d c #696D71",
"f c #6D7175",
"g c #727272",
"h c #717478",
"j c #7B7B7B",
"k c #848484",
"l c #8B8B8B",
"z c #939393",
"x c #9B9B9B",
"c c #A3A3A3",
"v c #AAAAAA",
"b c #B2B2B2",
"n c #BDBDBD",
"m c #C3C3C3",
"M c gray80",
"N c #D6D6D6",
"B c #DCDCDC",
"V c #E4E4E4",
"C c #EDEDED",
"Z c #F3F3F3",
"A c #F9F9F9",
/* pixels */
"&&&&##.#70000000000000000003: ",
"hhy=###3jllkkklkkklklkkkklkp=#",
"ff&###<slkjjkseeeeeeeskkjkk0==",
"se####ezzlllgyyyyyyyyygklzl<:<",
"a<#=O<kczzzkpgzzlzzzkpgzxxl=<#",
"i=#O7:bbcxxsszxzxxxzspzzvvs:=0",
"t=O6:3nnvxkszxcxxccjskcvnn3#q1",
"t=<:,3MMbxgszvcvvxkggccmMb=7<,",
"w:=::#BBmkgggvvclgggxvbBNh>:>:",
"q<==#:bVBlgggkzjggglvvNVN=-::#",
"66=O<=gVCmzsgggggglvcmZCk=*-O5",
"66:,==#lCZncccccccccbZZB==*O4-",
"24,-###=xCAmxxxxxxxvZACj=#O,**",
"&&&-#.@O=7psp033330psp7=O $OOO",
"&&&-##XX+=3psspyepgss0=O $OOO.",
"&&&&:#+X.#+=ejjkkkkje=# $OOOo$",
"&&&&->O.$ooO$1ujklg0=O.#OOOo$O",
"&&&&&-&&OOo.#O##==#OO.#OOO.$OO",
"&&&&*&-*OO.$XoX OOXO $OOO.$OOO",
"&&&&&&*-*.$OOO.$OOO $OOO.$OOO.",
"&&&&&&&*--OOO.$OOO $OOO $OOOX#",
"&*&&&&*&&>-O.$OOO $OOO.%OO#.$O",
"&&&&&&&&$&>-$OOO.$OOO %+OO.#OO",
">>,->>>>>>>>4*$X-$$#O-$$$X-$#$",
",>>,,,,,,,,,,,**$$#O:$#$X:&##X",
"444,44,4,44,4444<:#>=#*O,#&&O>",
"6644555555555555441<1111<11<11",
"966696968888888878778778787787",
"qqqqqq9q9qqqqqqqqqqqqqqqqqqqqq",
"rrqrrrrqrqwrwwwwwwwwwwwwwwwwww"
};
