/* XPM */
static char *btn_close_hover_png[] = {
/* columns rows colors chars-per-pixel */
"30 30 171 2 ",
"   c #060708",
".  c #070809",
"X  c #090A0C",
"o  c #040506",
"O  c #0D0E11",
"+  c #0F1113",
"@  c #111316",
"#  c #141719",
"$  c #17191C",
"%  c #1A1C1E",
"&  c #2D1F00",
"*  c #2C2100",
"=  c #332502",
"-  c #382600",
";  c #362801",
":  c #3F2C00",
">  c #3E3008",
",  c #1A1E21",
"<  c #171C20",
"1  c #1E2024",
"2  c #232324",
"3  c #24262A",
"4  c #262A2D",
"5  c #2B2C2C",
"6  c #3F3724",
"7  c #2C2E33",
"8  c #272E33",
"9  c #2F3031",
"0  c #333334",
"q  c #36383A",
"w  c #383B3D",
"e  c #442E00",
"r  c #423100",
"t  c #4D3500",
"y  c #4D3B00",
"u  c #4A3A08",
"i  c #523B00",
"p  c #473B14",
"a  c #4A3C18",
"s  c #493E20",
"d  c #5A4200",
"f  c #564617",
"g  c #674E00",
"h  c #6E570E",
"j  c #7A5400",
"k  c #765900",
"l  c #7D5800",
"z  c #725400",
"x  c #6A571A",
"c  c #735D15",
"v  c #7D630C",
"b  c #7D661C",
"n  c #534725",
"m  c #46443F",
"M  c #5E5230",
"N  c #6A5C2E",
"B  c #705D23",
"V  c #6E5F30",
"C  c #3D4146",
"Z  c #3F4348",
"A  c #2B4252",
"S  c #29506A",
"D  c #3B586F",
"F  c #375368",
"G  c #434343",
"H  c #41454A",
"J  c #4A4B4C",
"K  c #474847",
"L  c #494C51",
"P  c #434D57",
"I  c #4F5257",
"U  c #555A5D",
"Y  c #535455",
"T  c #5B5647",
"R  c #71684A",
"E  c #6E6854",
"W  c #425B6E",
"Q  c #4D5E6C",
"!  c #535D64",
"~  c #445D70",
"^  c #536A7C",
"/  c #696B6C",
"(  c #726E61",
")  c #6A7276",
"_  c #68747C",
"`  c #7C7D7D",
"'  c #717575",
"]  c #825D00",
"[  c #8B6D0B",
"{  c #996B00",
"}  c #946800",
"|  c #A97C00",
" . c #89732D",
".. c #857441",
"X. c #AD8100",
"o. c #AF8A0B",
"O. c #B38800",
"+. c #B48B07",
"@. c #B8910D",
"#. c #9B802A",
"$. c #BA9A33",
"%. c #B29331",
"&. c #988241",
"*. c #B59B4F",
"=. c #BDA251",
"-. c #92896C",
";. c #8F8978",
":. c #948D7C",
">. c #BEAB6D",
",. c #B7A469",
"<. c #C1AE6F",
"1. c #C3AF70",
"2. c #2D638C",
"3. c #3C6A8E",
"4. c #3074A5",
"5. c #3D79A6",
"6. c #3177A9",
"7. c #3D7DAE",
"8. c #347BAD",
"9. c #3B7FB0",
"0. c #5C7388",
"q. c #537289",
"w. c #496D8A",
"e. c #627584",
"r. c #4A7EA7",
"t. c #407FAE",
"y. c #497CA4",
"u. c #3E80B1",
"i. c #7E8385",
"p. c #7F898D",
"a. c #77838E",
"s. c #7C8B96",
"d. c #758C9E",
"f. c #4C80AA",
"g. c #5782A5",
"h. c #5A85A9",
"j. c #4583B3",
"k. c #5189B5",
"l. c #598DB7",
"z. c #5990BB",
"x. c #6388A4",
"c. c #6E8AA3",
"v. c #658CAC",
"b. c #7C94A7",
"n. c #6595BD",
"m. c #6E95B5",
"M. c #789EBC",
"N. c #78A3C4",
"B. c #828D91",
"V. c #8E9A9E",
"C. c #A59D8A",
"Z. c #BBAF86",
"A. c #B4A881",
"S. c #AEA691",
"D. c #B1A994",
"F. c #8B99A4",
"G. c #9EA4A6",
"H. c #89A6BD",
"J. c #9AADBB",
"K. c #A7A8A8",
"L. c #A7AEB0",
"P. c #C2B58B",
"I. c #85A7C5",
"U. c #8BAECB",
"Y. c #99B6CD",
"T. c #B2BFC5",
"R. c #A5BAC8",
"E. c #ABC0CE",
"W. c #BAC6CB",
"Q. c #B8C3C7",
"!. c #C5C8C9",
/* pixels */
"        X     @ G J J J J J J J J J J J J J J J J J J G 0 % ",
"% % X 5 1 % % 0 3.j.u.7.7.7.7.t.8.8.t.t.t.t.t.6.t.8.8.2.2 % ",
"2 @ q 2 2 2 2 F 7.8.4.4.4.4.4.4.4.4.4.4.4.4.4.4.4.6.5.S % % ",
"% H 0 0 0 % 0 y.j.t.5.5.5.5.5.5.5.5.y.t.y.5.5.5.5.t.t.A 2 2 ",
"U w q w % G ~ z.k.f.f.y.y.f.y.f.r.r.r.r.r.r.r.r.r.r.l.7 3 2 ",
"w w w , Y 0 v.n.v.g.g.g.g.g.g.g.v.r.w.W Q v.r.r.r.n.r.1 # 2 ",
"q q % I 0 ^ N.N.v.x.x.x.x.x.x.x.r.0.W Q Q r.r.c.M.M.w.% w 2 ",
"0 % L 0 0 H.U.M.c.c.c.c.c.c.c.c.0.Q ~ Q e.d.c.v.U.I.L 0 3 2 ",
"# H 0 5 ! Y.Y.d.d.d.Q Q e.d.d.e.! ! Q e.d.d.F.F.Y.Y.2 1 2 2 ",
"C 4 5 0 F.R.L.B.s.s.! ! ! _ _ ! ! ! e.B.F.e.e.J.R.e.3 2 2 2 ",
"5 3 5 0 W.W.V.B.p.p.) ! U U U U ! ) B.B.B.B.B.T.T.I 2 2 + 2 ",
"3 3 2 e.!.W.B.B.i.i.i./ U U U U / i.i.i.i.i.G.!.K.2 2 + 5 5 ",
"1 + 0 G.!.L...e.` ` ` / Y Y Y Y / e.` ` e...!.!./ 2 O 0 # 5 ",
"X , 7 j l i s > r : - * * * * * & - t e a i z g 2 O # + O 5 ",
", # s j l t e r r - * & & - - * & & e e u ] j p # , @ + O 5 ",
"@ , f { { i t t - - - - - t t e - - t t ] { ] 2 < @ @ @ X 5 ",
"@ , h | | d i t - * ; : t d d u d u t v X.| f $ @ @ @ X # 4 ",
"@ % c O.O.g t - - - : d t u > d u u k o.X.x 1 + @ @ X , @ 4 ",
"X 3 B @.@.[ u = = > i i f > d u u v +.o.b 3 + + @ X , @ + 7 ",
", % M $.$.$.B p a a a a > f 6 f #.$.%. .5 $ + @ X , @ @ O 7 ",
"@ @ 5 *.=.=.=.&.N s s s M V ..=.=.*. .3 # + @ X < @ @ @ X 7 ",
"@ + 1 R ,.>.1.1.1.1.1.1.1.1.1.<.,.R 8 $ + @ X , @ @ @ X @ 0 ",
"@ X < 3 E >.Z.P.P.P.P.P.P.P.A.-.T 3 + + + X < @ @ # X < + 0 ",
"+ 1 < < 1 K ( :.C.D.S.C.;.E m 3 3 @ $ $ O 3 % $ < + 1 # + 0 ",
"8 , % $ X 1 2 2 5 5 2 2 2 2 + 1 $ $ % O 4 , < < + 4 , < < 0 ",
", 1 , O 5 # < < X 5 # < # O 4 % , , O 7 , 2 2 + 4 1 2 2 X 0 ",
"0 q 0 0 0 0 0 5 0 5 0 5 4 0 0 0 0 0 0 0 q 0 0 q 0 0 0 0 q 7 ",
"H H H H H C C C C C C C C C H H H H H H H H H H H H H H H 1 ",
"L L L L L L L L L L L L L L J J L L L L L L J L J L L L L 3 ",
"L U L U I U I I I I I I I J I I L U L U I U I I I I I I I , "
};
