/* XPM */
static char *btn_close_default_png[] = {
/* columns rows colors chars-per-pixel */
"30 30 53 1 ",
"  c #040506",
". c #060708",
"X c #070809",
"o c #090A0C",
"O c #0D0E11",
"+ c #0F1113",
"@ c #111316",
"# c #141719",
"$ c #17191C",
"% c #1A1C1E",
"& c #171C20",
"* c #1A1E21",
"= c #1E2024",
"- c #232324",
"; c #24262A",
": c #262A2D",
"> c #2B2B2B",
", c #2C2E33",
"< c #2F3031",
"1 c #333333",
"2 c #36383A",
"3 c #3B3C3C",
"4 c #3D4146",
"5 c #3F4348",
"6 c #444444",
"7 c #41454A",
"8 c #46484C",
"9 c #4A4A4B",
"0 c #494C51",
"q c #4F5257",
"w c gray32",
"e c #535659",
"r c #5A5A5A",
"t c #646464",
"y c #6C6C6C",
"u c #727272",
"i c #7C7C7C",
"p c #838383",
"a c #8A8A8A",
"s c #929292",
"d c #9B9B9B",
"f c #A3A3A3",
"g c #A9A9A9",
"h c #B4B4B4",
"j c #BDBDBD",
"k c gray76",
"l c #CBCBCB",
"z c #D4D4D4",
"x c #DADADA",
"c c gray89",
"v c gray92",
"b c #F3F3F3",
"n c gray99",
/* pixels */
"....X X@69999999999999999996>-",
"%%o>%==<uaapappappappaappapy-%",
"-@2-;-=rappipipiipippipipppw%-",
"%8111%1pssaaaaaaaaaaaaaaaas9--",
"e323%6tfdsssssssaassssaasdd>>-",
"322=q1fhfdddddddddpttdddfgd-@-",
"22&q2ijjffffdfddfpytufffhji%3-",
"1&011jzjfffgfgffauuuafgglkr1--",
"$9<<yxxggguusfgsuuuaggghxl----",
"4>><hvxggguuyssyuuagggglcf----",
";;>>bbjgggsuuuyuuagggggbvr--@-",
";;-abbfffffpyyyypffffflbx--@:>",
";O<lnzdddddiytytpfdddfbbp-@>%-",
"X=>yy933331>>>>>-1333wyr-o%@O>",
"=$4yu63331>>>1<>::336yy6%&@O@:",
"@=9ap6663<>>1661>>66upy-&O@#X:",
"+=ydfw9311139999999udsw%++#o&:",
"@%yfgr911139999999ugft-++#o&@:",
"X-yhhp9<>39999969ihgi-@@#.&+O>",
"%%tjkky99999999rdjha>$+@o&#@O<",
"@@>jlllfuw99rufllka>$++X&#@@X<",
"@+-ilzxxxxxxxxzzki>$++X=@@@X#<",
"@X%>izxxccccczzgt;@++o=@@#X&O1",
"O;$$-9phlzlkgpw--$$$o-%%&O:##1",
">%$$+==;;;;;-=@=$%%O,&&&@,&%&1",
"===O>%$%O>%$%o>%%&+,===@,&-&O1",
"222<11<<<><><1<11111111111121,",
"45495544444644445588558884887*",
"900008809980008q0000000000000*",
"qqqqqeqqqqqqqqqqqqqqqeqqqqqqe="
};
