/* XPM */
static char *btn_close_click_png[] = {
/* columns rows colors chars-per-pixel */
"30 30 53 1 ",
"  c #040506",
". c #060708",
"X c #070809",
"o c #090A0C",
"O c #0D0E11",
"+ c #0F1113",
"@ c #111316",
"# c #141719",
"$ c #17191C",
"% c #1A1C1E",
"& c #171C20",
"* c #1A1E21",
"= c #1E2024",
"- c #232324",
"; c #24262A",
": c #262A2D",
"> c #2B2C2C",
", c #2C2E33",
"< c #2F3031",
"1 c #333333",
"2 c #36383A",
"3 c #3B3C3C",
"4 c #3D4146",
"5 c #3F4348",
"6 c #424242",
"7 c #41454A",
"8 c #46484C",
"9 c #4A4A4B",
"0 c #494C51",
"q c #4F5257",
"w c #535353",
"e c #535659",
"r c #5B5B5B",
"t c #626262",
"y c #6C6C6C",
"u c #737373",
"i c #7A7A7A",
"p c #848484",
"a c #8B8B8B",
"s c #929292",
"d c #9C9C9C",
"f c #A2A2A2",
"g c #ACACAC",
"h c #B3B3B3",
"j c #BDBDBD",
"k c #C5C5C5",
"l c #CBCBCB",
"z c #D6D6D6",
"x c #DADADA",
"c c gray90",
"v c #EBEBEB",
"b c #F4F4F4",
"n c #FAFAFA",
/* pixels */
"....o..@69999999999999999999<-",
"%%o>%**1knnbnvbnbbbbbbbbbbbk-%",
"-@2----pvvccccccccccvcccccvs%-",
"%8111%1lccxxzxxxxzzzzxzzzcxy--",
"e222-6ixxlklkkkkkkkkkkkkkxz2--",
"222*e1jlkhhhhhhhhhduuhhhhlg-+-",
"22*q1ukkfffffffffpyyyfddhjp-3-",
"2%011ghfaassasaautttissshg92--",
"$6>1rhfppprryppyrrrypppsff-;--",
"4>>>pfsiuu999tt999tyuyysdy----",
"::>1pptrtr93636369rrtrrpp6--@-",
":--9iy999993>1>1299999ryt--@>>",
"=+1ryr666661>>>>166666yt6-@>#-",
"o&<nnjasssittttttusssknc-o*O@>",
"$$rnnspppurrruyrrrpasbvp#&+@@-",
"@%ibbpiitwwwtiitweiizvj-&@@@o;",
"+=pvcuyr996ryyyyyyygcxy-+@@o&:",
"@*axxpr6669tttttttsxlu-O@+o&O,",
"o-ulldw316ee9ww99slka-@@@o*@O1",
"*%tjkjy99999999rdjha>@@@o&#+O,",
"@@>gfhgat9669taggfi>#+@o*#++o,",
"@@*tdddfdfffffdddt-#+@o%@@#.@1",
"@o%-wpaasssssapu9-#++o%@#@o%O1",
"O-$$-69yyuuytw2--@##O;%%&O;#@1",
":%$$o;=-->----@-%%%o:***O,*&#1",
"===+:%%%+:%%%o;%**+,=*=@,***o2",
"2111<<<<>>>1,1<<1111211111122,",
"85588444444445485588558884887*",
"80000000908008000000000000000*",
"qqqqqqqqqeqqqqqqqqqqqeqqqqqqe="
};
