/* XPM */
static char *btn_maximize_click_png[] = {
/* columns rows colors chars-per-pixel */
"30 30 54 1 ",
"  c #050506",
". c #060708",
"X c #090A0C",
"o c #0D0E10",
"O c #0F1114",
"+ c #111316",
"@ c #151719",
"# c #17191C",
"$ c #1A1B1D",
"% c #171C20",
"& c #1A1E21",
"* c #1E2023",
"= c #232425",
"- c #23262A",
"; c #26292D",
": c #2B2C2C",
"> c #2C2F33",
", c #2E3133",
"< c #333333",
"1 c #34373A",
"2 c #35383A",
"3 c #3B3B3C",
"4 c #383D41",
"5 c #3D4146",
"6 c #3F4348",
"7 c #424242",
"8 c #41454A",
"9 c #474A4E",
"0 c #4B4B4B",
"q c #494C51",
"w c #4F5257",
"e c #545454",
"r c #535659",
"t c #5B5B5B",
"y c #626262",
"u c #6C6C6C",
"i c #757575",
"p c #7A7A7A",
"a c #848484",
"s c #8B8B8B",
"d c #929292",
"f c #9C9C9C",
"g c #A2A2A2",
"h c #ACACAC",
"j c #B3B3B3",
"k c #BDBDBD",
"l c #C5C5C5",
"z c #CBCBCB",
"x c #D6D6D6",
"c c #DADADA",
"v c gray90",
"b c #EBEBEB",
"n c #F4F4F4",
"m c #FAFAFA",
/* pixels */
" .. X..@70000000000000000007<X",
"$$o-$#$<kmmnnnnnnnnnnnnnnnml-$",
"-+3-==-anbbvvvvvvvvvbvvvvbbs$=",
"#9<<<#<zvvxxxcxcxxxxxxcxxvvy;<",
"e333#6pcczlllllllllllllllxx<<$",
"333*w,kzkjjjdpippiipdjjhkzj=#e",
"33#w1ikkggfauuuuuuuuusggjkp*0<",
",#q,<hjhddayyyyyytyyyuddhhe<<<",
"#8:<yhhaaayteeetttettiasgg*;>>",
"7::<pfdiiu000e000000eiisfu*;;%",
";=::dayyt77777773737ettaa7;;+4",
";==0iy077::<::<:<<:<00tuy*&O1;",
"=O,yut77::::::::=::778yy7*O<-&",
".*:mmjdayyyyyyyyyyudszmv=X$+++",
"*$tmnfayttyypyttytpsdnba#%++OX",
"+$innaie0eyppy0e0yipcbk-#+++o%",
"+$svbiw8eyuuuy700yuhvcu$OO+X%+",
"+$sccpe7777777770ydczp=oOOo%O%",
"X*pzzfe7<22<<3<7eszls=o@Oo&+OO",
"$$ykkku00000000tfkjs:#@oo&++Oo",
"+@:ghhjsy0770yshjgp:#o#X%+++.%",
"+o*yffggfggggfffdy=@ooX$+++o%+",
"+X$:easssddsdsai0-++OX$@++X*++",
"o=##=2eyiiiiy02--+#$.-$$#O;%%%",
":$$#o=*===:=-$+-#$$o;%%$o;%%%O",
"***O;$$$O;$$*.:$$$+:*--o,*%-+>",
"<1<,<,,:::<::<,<<<<1<<3<<<<<<<",
"869666666666666688888888988988",
"qqqqqq0090990qqq0qqqqqqqqqqqqq",
"wwwwwwwwwwwwwwwwwewwwwwwrrrqwr"
};
