/* XPM */
static char *btn_minimize_hover_png[] = {
/* columns rows colors chars-per-pixel */
"30 30 151 2 ",
"   c #07080A",
".  c #090A0B",
"X  c #0E0F11",
"o  c #0F1214",
"O  c #111416",
"+  c #141618",
"@  c #161A1D",
"#  c #1A1B1D",
"$  c #3B3219",
"%  c #171C20",
"&  c #1A1E21",
"*  c #1C2126",
"=  c #1E2328",
"-  c #222324",
";  c #23262A",
":  c #26292C",
">  c #292A2C",
",  c #2A2D32",
"<  c #2D3036",
"1  c #263038",
"2  c #333435",
"3  c #32363C",
"4  c #35393D",
"5  c #423100",
"6  c #4A3B0B",
"7  c #503B00",
"8  c #443511",
"9  c #5B4206",
"0  c #544310",
"q  c #644602",
"w  c #6C4E00",
"e  c #724F00",
"r  c #675004",
"t  c #6E5100",
"y  c #745300",
"u  c #7D5600",
"i  c #7D5D00",
"p  c #353C41",
"a  c #3A3D43",
"s  c #3E4244",
"d  c #27455A",
"f  c #394E5E",
"g  c #214D6E",
"h  c #29516F",
"j  c #2C5B7F",
"k  c #325570",
"l  c #3D5B73",
"z  c #424344",
"x  c #41454A",
"c  c #4B4B4B",
"v  c #454A4E",
"b  c #494C51",
"n  c #4F5257",
"m  c #505456",
"M  c #51555A",
"N  c #555C5F",
"B  c #425B6E",
"V  c #4D5E6B",
"C  c #535D64",
"Z  c #5B5D60",
"A  c #4B5E70",
"S  c #5E6266",
"D  c #51616E",
"F  c #59646B",
"G  c #456076",
"H  c #4E6275",
"J  c #586570",
"K  c #576B7C",
"L  c #656666",
"P  c #64686B",
"I  c #646D72",
"U  c #696D71",
"Y  c #6C7276",
"T  c #68747C",
"R  c #707475",
"E  c #717478",
"W  c #7C7D7D",
"Q  c #836200",
"!  c #8C6100",
"~  c #926600",
"^  c #956A00",
"/  c #28618A",
"(  c #3A6281",
")  c #33658A",
"_  c #3074A5",
"`  c #3D76A1",
"'  c #3D79A6",
"]  c #3277A9",
"[  c #3178AA",
"{  c #3D7DAE",
"}  c #3A7EB0",
"|  c #4D6A80",
" . c #537289",
".. c #437195",
"X. c #4C7694",
"o. c #587992",
"O. c #537C9E",
"+. c #697E8F",
"@. c #627584",
"#. c #707D86",
"$. c #627B91",
"%. c #4A7EA6",
"&. c #557EA0",
"*. c #3E80B1",
"=. c #7E8385",
"-. c #7F898D",
";. c #69849C",
":. c #7C8B96",
">. c #748B9D",
",. c #4D83AE",
"<. c #5782A5",
"1. c #5B88AE",
"2. c #4381B1",
"3. c #4C86B2",
"4. c #5189B5",
"5. c #568EBA",
"6. c #6388A4",
"7. c #6E8AA3",
"8. c #678EAB",
"9. c #688EAC",
"0. c #7C94A7",
"q. c #7592AC",
"w. c #6493BC",
"e. c #719BBC",
"r. c #75A1C2",
"t. c #858686",
"y. c #888E90",
"u. c #919799",
"i. c #8897A2",
"p. c #949FA4",
"a. c #859FB3",
"s. c #96A2A6",
"d. c #9EA0A0",
"f. c #80A1BE",
"g. c #9BAFBC",
"h. c #9DB1BF",
"j. c #ADB4B6",
"k. c #86A9C6",
"l. c #87AAC8",
"z. c #89ACCA",
"x. c #94B1C7",
"c. c #98B5CC",
"v. c #A0B4C3",
"b. c #AEBBC1",
"n. c #A6BAC9",
"m. c #B4BFC3",
"M. c #BEC2C2",
"N. c #B6C4CA",
"B. c #BEC6C8",
"V. c #C5C7C7",
"C. c #C7C9C9",
/* pixels */
"* * * * - O . - z c v c c c c c c c c c c c c c c c c a > . ",
"E E N - # + - 2 ` 2.{ { *.{ { { } } { { { } { { { } } j - @ ",
"Y R - # # # 2 ( { ] _ _ _ / g g g g h h g / _ _ ] [ ] p - - ",
"U m # # - # f 4.2.` %.` ) h h h h h h h h h ) ' ' } [ p ; 2 ",
"L 2 # - O 2 X.5.,.%.,...k ( ,.%.%.%.%.%...k ( %.%.5.%.- 2 @ ",
"L - # O z - w.w.1.<.<.l l O.<.<.<.&.<.&.l l &.<.w.w.A ; @ n ",
"N - O z 2 3 r.r.8.6. .B o.6.6.6.6.6.6.| B  .6.9.r.e.p @ b 3 ",
"M - 2 > , 4 l.l.q.;.A A $.7.7.;.7.;.| A A 7.7.f.k.9.* v 2 2 ",
"n > - > > - c.c.f.K V V D >.>.>.@.V V V +.:.0.c.x.J < > , < ",
"v 2 - > O : i.n.j.Y C C S J =.S C C Z @.>.y.x.n.g.- ; > , O ",
"s 4 - O 4 - N j.N.s.Y N N N M V C M T t.t.p.N.m.U - * ; O a ",
"s s : < - - - R N.N.u.=.=.=.=.=.t.t.#.t.y.B.B.j.- - * O p ; ",
"p p 2 - * - O - W N.V.d.W W W W W W W t.M.V.M.L - - X < = = ",
"* * * > O . @ O - 6 t y r 7 5 $ 5 5 7 e e e 6 - X . % O O O ",
"* * * ; - # O O O # 8 e y u y q q e Q Q y 7 - O . % O O O . ",
"* * * * ; # X O . # # - 9 ! ! ^ ~ ~ ! ~ q - @ . % O O O . % ",
"* * * * * ; O . % X X O # 8 q ! ^ ^ u 0 - O . @ O O O . & O ",
"* * & = * 1 ; % O O O . # O % & - ; & @ O . @ O O O X % O O ",
"* = = = * * ; - O O X % X X X   % X X o . % O O O . & O O O ",
"* = = & * * * : * . % O O O . % X O O . % o O O . & O O O X ",
"= = & = * * * * : : O O O . # O O o . @ O O @   & O O O X % ",
"= = = * * * * * = : ; O . % O O O . % @ O O   % O O O . % O ",
"= & & & & & = * * * : > * O O O . & @ X @   & @ O O . % O O ",
"1 1 1 , , 1 1 1 : < : < 2 * # X ; % @ @ . ; @ @ # X : # % % ",
"< < < < , , , : , : , p : < : , & & & X : % % % X > % % % X ",
"p < < p p p p p p p : p p p p < , > @ , - - - X < * * * O > ",
"a a a a a a a a a a a a a a a a a 2 2 2 2 2 2 2 2 2 2 2 2 2 ",
"x x x x x x x x x x x x x x x x v x v v x x x v c x x c x x ",
"b b b b b b b b b b b b b b b b b b b b b b b b b b b b b b ",
"n n n n n n n n n n n n n n n n n n n n n b n n n n n n n n "
};
