/* XPM */
static char *btn_icon_default_png[] = {
/* columns rows colors chars-per-pixel */
"30 30 178 2 ",
"   c #060708",
".  c #060709",
"X  c #070809",
"o  c #08090B",
"O  c #090A0C",
"+  c #0A0C0E",
"@  c #0B0C0E",
"#  c #0B0C0F",
"$  c #0D0D0E",
"%  c #0E0E0F",
"&  c #0C0D10",
"*  c #0C0E10",
"=  c #0C0E11",
"-  c #0E0F10",
";  c #0F0F10",
":  c #0E0F11",
">  c #0D0F12",
",  c #0E0F12",
"<  c #0F1010",
"1  c #0E1012",
"2  c #0E1013",
"3  c #0E1114",
"4  c #0F1114",
"5  c #0F1115",
"6  c #0F1215",
"7  c #101112",
"8  c #101113",
"9  c #111113",
"0  c #111213",
"q  c #101214",
"w  c #111214",
"e  c #111315",
"r  c #121214",
"t  c #121314",
"y  c #131314",
"u  c #121315",
"i  c #101216",
"p  c #101316",
"a  c #111317",
"s  c #131415",
"d  c #111417",
"f  c #131416",
"g  c #141416",
"h  c #141516",
"j  c #141517",
"k  c #111418",
"l  c #121418",
"z  c #121519",
"x  c #131519",
"c  c #121619",
"v  c #13161A",
"b  c #141618",
"n  c #141619",
"m  c #151719",
"M  c #15171A",
"N  c #16171A",
"B  c #171819",
"V  c #17181A",
"C  c #16181B",
"Z  c #17181B",
"A  c #17191B",
"S  c #17191C",
"D  c #17191D",
"F  c #16191E",
"G  c #161A1E",
"H  c #171B1F",
"J  c #18191A",
"K  c #18191B",
"L  c #18191C",
"P  c #191A1C",
"I  c #181A1D",
"U  c #1A1B1C",
"Y  c #1A1B1D",
"T  c #1B1C1D",
"R  c #191C1F",
"E  c #171B20",
"W  c #181C20",
"Q  c #191C20",
"!  c #181C21",
"~  c #1B1D20",
"^  c #1B1D21",
"/  c #1B1E20",
"(  c #1B1E22",
")  c #1C1D20",
"_  c #1D1E21",
"`  c #1D1F22",
"'  c #1D1F23",
"]  c #1E1F22",
"[  c #1E1F23",
"{  c #1E2023",
"}  c #1F2023",
"|  c #1E2024",
" . c #1F2024",
".. c #1F2124",
"X. c #1F2125",
"o. c #1C2127",
"O. c #202223",
"+. c #202225",
"@. c #222325",
"#. c #222527",
"$. c #22262B",
"%. c #262729",
"&. c #25262A",
"*. c #25272B",
"=. c #25282A",
"-. c #24282B",
";. c #26282C",
":. c #27282C",
">. c #26282D",
",. c #27292E",
"<. c #272A2E",
"1. c #28292E",
"2. c #282B2E",
"3. c #292B2E",
"4. c #282A2F",
"5. c #2B2C2F",
"6. c #2B2E31",
"7. c #2B2F31",
"8. c #282C32",
"9. c #2A2F32",
"0. c #2D2E31",
"q. c #2D3033",
"w. c #2F3133",
"e. c #2F3034",
"r. c #2E3234",
"t. c #2C3036",
"y. c #2D3236",
"u. c #323436",
"i. c #333436",
"p. c #323538",
"a. c #31353A",
"s. c #32363B",
"d. c #343739",
"f. c #32363C",
"g. c #33373D",
"h. c #37393A",
"j. c #33383D",
"k. c #35383C",
"l. c #363A3D",
"z. c #373A3D",
"x. c #393A3C",
"c. c #393C3E",
"v. c #3A3F41",
"b. c #3A3D43",
"n. c #3B3E42",
"m. c #3C3E41",
"M. c #3D4042",
"N. c #3E4145",
"B. c #3F4244",
"V. c #3F4245",
"C. c #3F4246",
"Z. c #414548",
"A. c #404449",
"S. c #434549",
"D. c #434648",
"F. c #41454A",
"G. c #45474A",
"H. c #44474D",
"J. c #45494C",
"K. c #46494C",
"L. c #494C4E",
"P. c #474B50",
"I. c #494C51",
"U. c #4B4E51",
"Y. c #4C4E50",
"T. c #4F5355",
"R. c #4F5257",
"E. c #505358",
"W. c #54585A",
"Q. c #55585B",
"!. c #55585C",
"~. c #585B5F",
"^. c #5A5C61",
"/. c #5B5F62",
"(. c #5F6264",
"). c #606367",
"_. c #626468",
"`. c #6C6E71",
/* pixels */
"5 k 2 ! v v v 2 ! v v v 2 ! v v v 2 ! v v v 2 ! v v v 2 ! v ",
"4 i.(.Y.Y.Y.x.(.Y.Y.Y.x.(.Y.Y.Y.x.(.Y.Y.Y.x.(.Y.Y.Y.x.(.Y.Y.",
"@ Q.L.L.L.h./.L.L.L.h./.L.L.L.h./.L.L.L.h./.L.L.L.h./.L.L.L.",
"z V.K.K.d.~.K.K.K.d.~.K.K.K.d.~.K.K.K.d.~.K.K.K.d.~.K.K.K.d.",
"3 M.D.u.W.D.D.D.u.W.D.D.D.u.W.D.D.D.u.W.D.D.D.u.W.D.D.D.u.W.",
"3 c.w.T.B.B.B.w.T.B.B.B.w.T.B.B.B.w.T.B.B.B.w.T.B.B.B.w.T.B.",
"3 5.U.m.m.m.0.U.m.m.m.0.U.m.m.m.0.U.m.m.m.0.U.m.m.m.0.U.m.m.",
"# Z.z.z.z.3.J.z.z.z.3.J.z.z.z.3.J.z.z.z.3.J.z.z.z.3.J.z.z.z.",
"z q.p.p.=.C.p.p.p.=.C.p.p.p.=.C.p.p.p.=.C.p.p.p.=.C.p.p.p.=.",
"4 7.r.#.v.r.r.r.#.v.r.r.r.#.v.r.r.r.#.v.r.r.r.#.v.r.r.r.#.v.",
"4 2.+.l.6.6.6.+.l.6.6.6.+.l.6.6.6.+.l.6.6.6.+.l.6.6.6.+.l.6.",
"6 ~ a.<.<.<.` a.<.<.<.` a.<.<.<.` a.<.<.<.` a.<.<.<.` a.<.<.",
"# 9.-.-.-./ y.-.-.-./ y.-.-.-./ y.-.-.-./ y.-.-.-./ y.-.-.-.",
"v k v v 2 ! v v v 2 ! v v v 2 ! v v v 2 ! v v v 2 ! v v v 2 ",
"4 k v 2 ! v v v 2 ! v v v 2 ! v v v 2 ! v v v 2 ! v v v 2 ! ",
"5 d 2 ! v v v 2 ! v v v 2 ! v v v 2 ! v v v 2 ! v v v 2 H z ",
"3 > ! v v v 2 ! v v v 2 ! v v v 2 ! v v v 2 ! v v v , E k 4 ",
"# G v v v 2 ! v v v 2 ! v v v 2 ! v v v 2 ! v v x 2 E p 4 * ",
"c z v v 2 ! v v v 2 ! v v v 2 ! v v v 2 ! v v v 2 H a 5 & . ",
"4 k v 2 ! v v v 2 ! v v v 2 ! v v v 2 ! v v v 2 ! d 5 = X + ",
"4 k 2 ! v v v 2 ! v v v 2 ! v v v 2 ! v v v 2 W z i > X q n.",
"6 > ! v v v 2 ! v v v 2 ! v v v 2 ! v v v 2 ! z d 2 o 1 N.s.",
"# F v v v 2 ! v v v 2 ! v v v 2 ! v v v 2 ! z l 4 O + k.j.o.",
"z R ( ( n $.( ( ( n $.( ( ( n $.( ( ( n $.( Q D : e :.A.8.8.",
"6 ^ | M >.| ' ' M >.| | [ C >.| | | C >.' ^ I 8 j b E.g.t.t.",
"2 ` C 1.X. .X.C 4.X.X.X.S >. .X.+.L ,.| [ ) w K : S.H.f.f.f.",
"& m *.] ] } m &.` { ` Z &.} { ` N ;.] { ) f L 9 e.R.b.b.b.b.",
"X _ K V V u ` A V A r ..P V P u ` L K K 7 Y t O.).P.F.F.F.F.",
"O t t g < B t h s ; P s h s - P s s h % V t %._.!.I.I.I.I.I.",
"  t 0 y T B J B s T B B B s T s 0 0 $ U @.G.`.^.R.R.R.R.R.R."
};
