/* XPM */
static char *btn_maximize_hover_png[] = {
/* columns rows colors chars-per-pixel */
"30 30 171 2 ",
"   c #050506",
".  c #060708",
"X  c #090A0C",
"o  c #0D0E10",
"O  c #0F1114",
"+  c #111316",
"@  c #151719",
"#  c #17191C",
"$  c #1A1B1D",
"%  c #2D1F00",
"&  c #2C2100",
"*  c #322502",
"=  c #352801",
"-  c #3D2B00",
";  c #3E3008",
":  c #1A1E21",
">  c #171C20",
",  c #1E2023",
"<  c #232425",
"1  c #23262A",
"2  c #26292D",
"3  c #2B2B2C",
"4  c #3F3724",
"5  c #2C2F33",
"6  c #272E33",
"7  c #2E3133",
"8  c #333334",
"9  c #34373A",
"0  c #35383A",
"q  c #383B3D",
"w  c #442E00",
"e  c #423100",
"r  c #4D3500",
"t  c #4E3900",
"y  c #4A3A08",
"u  c #523B00",
"i  c #473B14",
"p  c #4A3C18",
"a  c #493E20",
"s  c #5A4200",
"d  c #564617",
"f  c #674E00",
"g  c #6E570E",
"h  c #7A5400",
"j  c #765900",
"k  c #7D5800",
"l  c #725400",
"z  c #6A571A",
"x  c #735D15",
"c  c #7D630C",
"v  c #7D661C",
"b  c #534725",
"n  c #46443F",
"m  c #5E5230",
"M  c #6A5C2E",
"N  c #705D23",
"B  c #6E5F30",
"V  c #383D41",
"C  c #3D4146",
"Z  c #3F4348",
"A  c #2B4252",
"S  c #29506A",
"D  c #3B586F",
"F  c #375368",
"G  c #424343",
"H  c #41454A",
"J  c #4A4B4C",
"K  c #484948",
"L  c #494C51",
"P  c #434D57",
"I  c #4F5257",
"U  c #535454",
"Y  c #555A5C",
"T  c #585A5C",
"R  c #5B5647",
"E  c #71684A",
"W  c #6E6854",
"Q  c #425B6E",
"!  c #4C5E6C",
"~  c #535D64",
"^  c #445D70",
"/  c #5F6364",
"(  c #5B6974",
")  c #53697B",
"_  c #676B6C",
"`  c #726E61",
"'  c #77797A",
"]  c #825D00",
"[  c #8B6D0B",
"{  c #996B00",
"}  c #946800",
"|  c #A97C00",
" . c #89732D",
".. c #857441",
"X. c #AD8100",
"o. c #AF8A0B",
"O. c #B38800",
"+. c #B48B07",
"@. c #B8910D",
"#. c #9B802A",
"$. c #BA9A33",
"%. c #B29331",
"&. c #988241",
"*. c #B59B4F",
"=. c #BDA251",
"-. c #92896C",
";. c #8F8978",
":. c #948D7C",
">. c #BAA76B",
",. c #C1AE6F",
"<. c #C3AF70",
"1. c #2D638C",
"2. c #3C6A8E",
"3. c #3074A5",
"4. c #3D79A6",
"5. c #3177A9",
"6. c #3D7DAE",
"7. c #347BAD",
"8. c #3B7FB0",
"9. c #496D8A",
"0. c #537289",
"q. c #757E81",
"w. c #657F96",
"e. c #4A7EA7",
"r. c #407FAE",
"t. c #497CA4",
"y. c #3E80B1",
"u. c #7E8384",
"i. c #75828C",
"p. c #7F898D",
"a. c #6B8091",
"s. c #7C8B96",
"d. c #758C9E",
"f. c #4C80AA",
"g. c #5782A5",
"h. c #5A85A9",
"j. c #5189B5",
"k. c #598DB7",
"l. c #5990BB",
"z. c #4583B3",
"x. c #6388A4",
"c. c #6E8AA3",
"v. c #658CAC",
"b. c #7C94A7",
"n. c #6595BD",
"m. c #6E95B5",
"M. c #789EBC",
"N. c #78A3C4",
"B. c #828D91",
"V. c #8E9A9E",
"C. c #A59D8A",
"Z. c #BBAF86",
"A. c #B4A881",
"S. c #AEA691",
"D. c #B1A994",
"F. c #8B99A4",
"G. c #9EA4A6",
"H. c #89A6BD",
"J. c #9AADBB",
"K. c #A7A8A8",
"L. c #A7AEB0",
"P. c #C2B58B",
"I. c #85A7C5",
"U. c #8BAECB",
"Y. c #99B6CD",
"T. c #B2BFC5",
"R. c #A5BAC8",
"E. c #ABC0CE",
"W. c #BAC6CB",
"Q. c #B8C3C7",
"!. c #C5C8C9",
/* pixels */
"  . .   X   X + n K J K J K J J L J J J J J J J J J G G 7 X ",
"$ $ o 1 $ # $ 8 2.f.y.6.y.6.r.r.6.6.6.6.6.6.6.6.r.6.6.1., $ ",
"1 + 0 1 1 , 1 F y.7.3.3.3.3.3.3.3.3.3.3.3.3.3.3.5.7.5.S , 2 ",
"$ J 8 8 8 # 8 t.z.y.4.4.4.4.4.4.4.4.4.4.4.4.4.4.4.8.8.V 2 5 ",
"U 0 0 0 , G ^ l.l.f.t.f.t.f.t.f.e.e.e.e.e.e.e.e.e.j.j.6 5 : ",
"0 0 0 : U 8 v.n.k.g.g.g.9.D D D D D D D 9.v.e.e.e.n.w.< : U ",
"0 0 , I 8 ) N.N.v.v.h.0.Q Q Q Q Q Q Q Q ! 0.w.v.M.M.9.$ L 8 ",
"0 $ J 8 8 H.U.M.d.d.a.! ! Q ! ! ! ! Q ! ! ) c.v.I.I.P 9 5 8 ",
"@ G 5 7 ~ Y.Y.b.d.d.( ! ! ! ! ~ ~ ~ ! ~ ! w.d.F.Y.I., 2 6 6 ",
"G 5 2 7 F.R.J.s.d.q.! / ~ ~ ~ ~ ~ ~ ~ ~ ( B.d.L.R.p., 1 2 @ ",
"2 2 2 7 !.W.F.B.i./ ~ Y ~ Y Y Y ~ ~ T ~ q.B.B.T.T.U 1 1 + V ",
"2 1 : q.!.W.u.u.' Y Y U Y U Y Y T U U / u.u.G.T.L., : + V 1 ",
": O 7 K.!.L...q.T U U U U U U U U U U ' s...!.!._ < o 7 1 1 ",
"X : 3 h k u a ; & & % % & & & & % % * w i u l f < o > + + + ",
": > a k ] w w * * % % % - % & & % % - w w ] h i @ > + + @ X ",
"+ : d } { u w * * * w r r w * * * * r r ] } ] < $ O O @ X > ",
"+ : g | | u w - - u u u u t = = = t t c | | d $ + + + X > @ ",
"@ @ x O.O.f e * * * * * = = = = ; t j O.X.z , O + + X > + + ",
"X 2 N @.@.[ y e * * - - * * * ; y c @.o.v 2 + O + X : + + + ",
": @ m $.$.$.N p i i i p p p p d #.$.%. .1 @ O O X > + + + X ",
"+ @ 3 *.=.=.=.&.B a a a b B ..=.=.*. .3 # + + X : + + + X > ",
"O O , E >.>.<.<.<.<.<.<.<.<.<.,.>.W 2 @ o + X : + + @ X > @ ",
"+ X > 2 W >.Z.P.P.P.P.P.P.P.A.-.R 1 @ O + . : + + + X > @ + ",
". 2 @ > 2 G ` :.C.D.S.C.;.` n < 1 + @ @ o 1 @ $ > X 2 > > > ",
"2 @ : @ X 1 , < < < 3 < , , + 1 @ @ $ O 1 : : : o 5 : : : o ",
": 2 : O 5 : @ : O 2 $ $ > O 2 $ $ , O 5 : 2 1 o 5 : , : @ 5 ",
"8 9 8 8 8 7 7 5 3 7 3 3 7 7 7 8 8 8 8 8 0 8 8 8 8 9 8 8 8 8 ",
"H H H H H V G G G G G G H V G G H H H H H H H H H H H H H H ",
"L L L L L L L L L L L L L L L L J L L L L L L L L L L L L L ",
"I U I I I I I I I I I I I L I I I I I I I U I I U U I U I U "
};
