/* XPM */
static char *btn_close_push_png[] = {
/* columns rows colors chars-per-pixel */
"24 24 92 1 ",
"  c black",
". c #030101",
"X c #060102",
"o c #080202",
"O c #090202",
"+ c #0A0203",
"@ c #0E0304",
"# c #0F0304",
"$ c #170506",
"% c #1E0708",
"& c #220709",
"* c #230808",
"= c #240808",
"- c #250808",
"; c #260809",
": c #2A0909",
"> c #320405",
", c #340505",
"< c #380809",
"1 c #39090B",
"2 c #3A090B",
"3 c #390B0B",
"4 c #380B0C",
"5 c #3F0A0C",
"6 c gray15",
"7 c #202937",
"8 c #212A38",
"9 c #222A38",
"0 c #242B39",
"q c #262B39",
"w c #282B3A",
"e c #292C39",
"r c #2A2C39",
"t c #440607",
"y c #450607",
"u c #40080A",
"i c #43090A",
"p c #410A0D",
"a c #5E0A09",
"s c #5D0B0B",
"d c #5F0B0A",
"f c #5D0D0E",
"g c #5F0D0E",
"h c #450E10",
"j c #561112",
"k c #571112",
"l c #5A1113",
"z c #5B1214",
"x c #5C1314",
"c c #5E1214",
"v c #610808",
"b c #630808",
"n c #600D0E",
"m c #6E0B0B",
"M c #690A0C",
"N c #740D0F",
"B c #7E0909",
"V c #7D090A",
"C c #770E10",
"Z c #7D0F10",
"A c #68686F",
"S c #69686F",
"D c #6A686F",
"F c #6C6970",
"G c #6D6970",
"H c #6E6970",
"J c #810B0D",
"K c #830B0D",
"L c #830D0C",
"P c #840D0C",
"I c #900F10",
"U c #930F11",
"Y c #881A1C",
"T c #8A1A1D",
"R c #8D1B1E",
"E c #8D1C1E",
"W c #951112",
"Q c #A31214",
"! c #A41314",
"~ c #A51315",
"^ c #B21112",
"/ c #B31212",
"( c #B91113",
") c #8F2425",
"_ c #9E3E41",
"` c #AF3D41",
"' c #B03E40",
"] c #C74145",
"[ c #C66E72",
"{ c #A0A0A7",
"} c #A0A1A8",
"| c white",
/* pixels */
"A88888888888888888888|A{",
"A8A666666666666666668|{7",
"A8A666666666666666668|{7",
"A8A666666666666666668|{7",
"|8}SDFGHGFDDFGHGFDSA8||A",
"A88.@%***&$$&***%@. 8}A7",
"A88X%*---=**=---*%X 8}A7",
"A88O*-2n3:;;:3g1-*O 8}A7",
"A88+*-ZmNzhhxNMC-*+ 8}A7",
"A88o*-pUJ_))_KI5-*o 8}A7",
"A88X&-:cQ`[['Qc:-&X 8}A7",
"A88.$*;hR~]]!Eh;*$. 8}A7",
"A88.$*;hYW((WYh;*$. 8}A7",
"A88X&-:kfV/^Bfj:-&X 8}A7",
"A88o*-4iyLTTPtu4-*o 8}A7",
"A88+*-d,vlhhlb>s-*+ 8}A7",
"A88O*-<a2:;;:2a<-*O 8}A7",
"A88X%*----**----*%X 8}A7",
"A88.#%***&$$&***%#. 8}A7",
"A8890qerwq00qwreq0988}A7",
"A8A}}}}}}}}}}}}}}}}}8}A7",
"A8}|||||||||||||||||8}A7",
"AAAAAAAAAAAAAAAAAAAAAAA7",
"AAAAAAAAAAAAAAAAAAAAAAAA"
};
