/* XPM */
static char *btn_maximize_png[] = {
/* columns rows colors chars-per-pixel */
"24 24 21 1 ",
"  c #212A38",
". c #720B0C",
"X c #750B0C",
"o c #760B0D",
"O c #760C0D",
"+ c #711517",
"@ c #6C4E54",
"# c #6D4E54",
"$ c #784F55",
"% c #784F56",
"& c #68686F",
"* c #9E0F0F",
"= c #9F0F10",
"- c #9E0F11",
"; c #8D171A",
": c #8F171A",
"> c #9A181B",
", c #99191C",
"< c #A0A0A7",
"1 c #A0A1A8",
"2 c white",
/* pixels */
"&&                    2&",
"<& &<<<<<<<<<<<<<<<<< 2<",
"<& &<<<<<<<<<<<<<<<<< 2<",
"<& &<<<<<<<<<<<<<<<<< 2<",
"22 122222222222222222 22",
"&&  &&&&&&&&&&&&&&&&& 1&",
"&&  &&&&&&&&&&&&&&&&& 1&",
"&&  &&#+.........+@&& 1&",
"&&  &&+...........+&& 1&",
"&&  &&.............&& 1&",
"&&  &&.............&& 1&",
"&&  &&.............&& 1&",
"&&  &&.............&& 1&",
"&&  &&.............&& 1&",
"&&  &&O...........X&& 1&",
"&&  &&;o.........o:&& 1&",
"&&  &&%>**=-=*=*=,$&& 1&",
"&&  &&&&&&&&&&&&&&&&& 1&",
"&&  &&&&&&&&&&&&&&&&& 1&",
"&&                    1&",
"&& &11111111111111111 1&",
"&& 122222222222222222 1&",
"&&&&&&&&&&&&&&&&&&&&&&&&",
"&&&&&&&&&&&&&&&&&&&&&&&&"
};
