/* XPM */
static char * btn_shade_inactive_push_xpm[] = {
"24 24 15 1",
" 	c None",
".	c #343437",
"+	c #10151B",
"@	c #7F7F7F",
"#	c #505053",
"$	c #9F0F10",
"%	c #FFFFFF",
"&	c #14161C",
"*	c #1C181E",
"=	c #720B0C",
"-	c #505054",
";	c #251920",
">	c #2C1B22",
",	c #281A21",
"'	c #311C23",
"..++++++++++++++++++++@.",
"#.+.$$$$$$$$$$$$$$$$$+@#",
"#.+.$$$$$$$$$$$$$$$$$+@#",
"#.+.$$$$$$$$$$$$$$$$$+@#",
"@@+@%%%%%%%%%%%%%%%%%&@@",
"..+*=================*-.",
"..+;=================;-.",
"..+>=================>-.",
"..+>=================>-.",
"..+;=================;-.",
"..+*=================*-.",
"..+&*,''''''''''''',*&-.",
"..+.-----------------+-.",
"..+-@@@@@@@@@@@@@@@@@+-.",
"........................",
"........................",
"........................",
"........................",
"........................",
"........................",
"........................",
"........................",
"........................",
"........................"};
