/* XPM */
static char *btn_minimize_hover_png[] = {
/* columns rows colors chars-per-pixel */
"24 24 40 1 ",
"  c #212A38",
". c #222A38",
"X c #262B39",
"o c #2F2D3A",
"O c #3A2F3D",
"+ c #3F303E",
"@ c #760A0C",
"# c #770A0C",
"$ c #790E0E",
"% c #7B0E0E",
"& c #770F11",
"* c #68686F",
"= c #69686F",
"- c #6C6970",
"; c #716A71",
": c #776B73",
"> c #796C73",
", c #7D6D74",
"< c #7E6D74",
"1 c #7F6D74",
"2 c #820B0C",
"3 c #800D0C",
"4 c #930705",
"5 c #940B0B",
"6 c #AF0D09",
"7 c #BB110F",
"8 c #D81414",
"9 c #8E4349",
"0 c #8F4349",
"q c #914248",
"w c #A04C4F",
"e c #BC4548",
"r c #806D75",
"t c #876F76",
"y c #8A6F77",
"u c #BE7B7D",
"i c #A0A0A7",
"p c #A0A1A8",
"a c #DE8285",
"s c white",
/* pixels */
"**                    s*",
"i* *iiiiiiiiiiiiiiiii si",
"i* *iiiiiiiiiiiiiiiii si",
"i* *iiiiiiiiiiiiiiiii si",
"ss psssssssssssssssss ss",
"**  ***************** p*",
"**  ***************** p*",
"**  ***************** p*",
"**  ***************** p*",
"**  ***=-;>,,,>;-=*** p*",
"**  ***-:,,<1<,,:-*** p*",
"**  ***;,<rtytr<,;*** p*",
"**  ***>,r9wuw0r,>*** p*",
"**  ***,<t&eae&t<,*** p*",
"**  ***,1y#787@y1,*** p*",
"**  ***,<t%565$t<,*** p*",
"**  ***>,rq243qr,>*** p*",
"**  ***;,<rtytr<,;*** p*",
"**  ***-:,,<1<,,:-*** p*",
"**     .XoO+++OoX.    p*",
"** *ppppppppppppppppp p*",
"** psssssssssssssssss p*",
"************************",
"************************"
};
