/* XPM */
static char * btn_pin_inactive_push_xpm[] = {
"24 24 9 1",
" 	c None",
".	c #343437",
"+	c #10151B",
"@	c #7F7F7F",
"#	c #505053",
"$	c #720B0C",
"%	c #9F0F10",
"&	c #FFFFFF",
"*	c #505054",
".......++++++++++@......",
"######.+$%%%%%%%+@######",
"######.+$%%%%%%%+@######",
"######.+$%%%%%%%+@######",
"@@@@@@@+@&&&&&&&+@@@@@@@",
".......++$$$$$$$+*......",
".......++$$$$$$$+*......",
".......++$$$$$$$+*......",
".......++$$$$$$$+*......",
".......++$$$$$$$+*......",
".......++$$$$$$$+*......",
".......++$$$$$$$+*......",
".......++++++++++*......",
".......+.*******+*......",
".......+*@@@@@@@+*......",
"........................",
"........................",
"........................",
"........................",
"........................",
"........................",
"........................",
"........................",
"........................"};
