/* XPM */
static char *btn_maximize_hover_png[] = {
/* columns rows colors chars-per-pixel */
"24 24 100 2 ",
"   c #3E0303",
".  c #3F0303",
"X  c #212A38",
"o  c #222A38",
"O  c #262B39",
"+  c #2F2D3A",
"@  c #3B303D",
"#  c #3F303E",
"$  c #490606",
"%  c #4E0404",
"&  c #4F0404",
"*  c #4D0606",
"=  c #570506",
"-  c #5A0503",
";  c #5C0603",
":  c #580605",
">  c #5F0606",
",  c #5E0706",
"<  c #5F0708",
"1  c #540C0C",
"2  c #560C0C",
"3  c #630100",
"4  c #670100",
"5  c #640707",
"6  c #600708",
"7  c #630708",
"8  c #620D0E",
"9  c #790000",
"0  c #7A0B0B",
"q  c #68686F",
"w  c #776B73",
"e  c #7D6D74",
"r  c #7E6D74",
"t  c #7F6D74",
"y  c #7F6D75",
"u  c #820000",
"i  c #840000",
"p  c #890C0E",
"a  c #8F0C0E",
"s  c #930000",
"d  c #990200",
"f  c #9D0000",
"g  c #910A0A",
"h  c #910B0A",
"j  c #910D0E",
"k  c #920D0E",
"l  c #A00000",
"z  c #A10000",
"x  c #A70400",
"c  c #AE0500",
"v  c #B30702",
"b  c #B10A07",
"n  c #B20A07",
"m  c #B50804",
"M  c #BA0D0C",
"N  c #CB0000",
"B  c #D10100",
"V  c #D30100",
"C  c #D30200",
"Z  c #D40200",
"A  c #D40300",
"S  c #D60600",
"D  c #D80700",
"F  c #D90800",
"G  c #DA0902",
"H  c #DC0B02",
"J  c #DC0B04",
"K  c #DE0D07",
"L  c #DA0F0A",
"P  c #DF0E09",
"I  c #C4100F",
"U  c #C91112",
"Y  c #CC1617",
"T  c #E00E0B",
"R  c #E2110E",
"E  c #E21210",
"W  c #E31212",
"Q  c #E61D1F",
"!  c #E61E20",
"~  c #CF2427",
"^  c #E93739",
"/  c #864046",
"(  c #874046",
")  c #844247",
"_  c #854248",
"`  c #806D75",
"'  c #886F76",
"]  c #896F77",
"[  c #957279",
"{  c #95727A",
"}  c #AB767F",
"|  c #EC575B",
" . c #EC5A5D",
".. c #EF6E72",
"X. c #B57980",
"o. c #B47881",
"O. c #A0A0A7",
"+. c #A0A1A8",
"@. c #F2878A",
"#. c white",
/* pixels */
"q q X X X X X X X X X X X X X X X X X X X X #.q ",
"O.q X q O.O.O.O.O.O.O.O.O.O.O.O.O.O.O.O.O.X #.O.",
"O.q X q O.O.O.O.O.O.O.O.O.O.O.O.O.O.O.O.O.X #.O.",
"O.q X q O.O.O.O.O.O.O.O.O.O.O.O.O.O.O.O.O.X #.O.",
"#.#.X +.#.#.#.#.#.#.#.#.#.#.#.#.#.#.#.#.#.o #.#.",
"q q X O w e e r t y y y y y y y t r e e w O +.q ",
"q q X + e r ` ' [ } o.X.X.X.o.} [ ' ` r e + +.q ",
"q q X @ e ` ) 8 0 p a j k j a p 0 8 _ ` e @ +.q ",
"q q X # r ' 1 g M I U Y ~ Y U I M h 2 ' r # +.q ",
"q q X # t [ < b L E Q  ... .Q E L n 6 [ t # +.q ",
"q q X # y } 7 m K R ! ..@...! R K m 5 } y # +.q ",
"q q X # y o., v H T W ^ | ^ W T H v > o.y # +.q ",
"q q X # y o.= c D J P R E R P J D c : o.y # +.q ",
"q q X # y } % x A S F G H G F S A x & } y # +.q ",
"q q X # t {   d N B V C Z C V B N d . { t # +.q ",
"q q X # r ] * 3 s f l l z l l f s 4 $ ] r # +.q ",
"q q X @ e ` ( - 9 i i i i i i u 9 ; / ` e @ +.q ",
"q q X + e r ` ] { } o.X.X.X.o.} [ ' ` r e + +.q ",
"q q X O w e e r t y y y y y y y t r e e w O +.q ",
"q q X o O + @ # # # # # # # # # # # @ + O o +.q ",
"q q X q +.+.+.+.+.+.+.+.+.+.+.+.+.+.+.+.+.X +.q ",
"q q X +.#.#.#.#.#.#.#.#.#.#.#.#.#.#.#.#.#.X +.q ",
"q q q q q q q q q q q q q q q q q q q q q q q q ",
"q q q q q q q q q q q q q q q q q q q q q q q q "
};
