/* XPM */
static char * btn_pin_hover_push_xpm[] = {
"24 24 8 1",
" 	c None",
".	c #68686F",
"+	c #212A38",
"@	c #FFFFFF",
"#	c #A0A0A7",
"$	c #720B0C",
"%	c #9F0F10",
"&	c #A0A1A8",
".......++++++++++@......",
"######.+$%%%%%%%+@######",
"######.+$%%%%%%%+@######",
"######.+$%%%%%%%+@######",
"@@@@@@@+&@@@@@@@+@@@@@@@",
".......++$$$$$$$+&......",
".......++$$$$$$$+&......",
".......++$$$$$$$+&......",
".......++$$$$$$$+&......",
".......++$$$$$$$+&......",
".......++$$$$$$$+&......",
".......++$$$$$$$+&......",
".......++++++++++&......",
".......+.&&&&&&&+&......",
".......+&@@@@@@@+&......",
"........................",
"........................",
"........................",
"........................",
"........................",
"........................",
"........................",
"........................",
"........................"};
