/* XPM */
static char *btn_minimize_png[] = {
/* columns rows colors chars-per-pixel */
"24 24 18 1 ",
"  c #212A38",
". c #720B0C",
"X c #750B0C",
"o c #760B0D",
"O c #770C0D",
"+ c #711517",
"@ c #6D4E54",
"# c #784F55",
"$ c #784F56",
"% c #68686F",
"& c #9E0F0F",
"* c #8F171A",
"= c #8E181B",
"- c #99181B",
"; c #99191C",
": c #A0A0A7",
"> c #A0A1A8",
", c white",
/* pixels */
"%%                    ,%",
":% %::::::::::::::::: ,:",
":% %::::::::::::::::: ,:",
":% %::::::::::::::::: ,:",
",, >,,,,,,,,,,,,,,,,, ,,",
"%%  %%%%%%%%%%%%%%%%% >%",
"%%  %%%%%%%%%%%%%%%%% >%",
"%%  %%%%%%%%%%%%%%%%% >%",
"%%  %%%%%%%%%%%%%%%%% >%",
"%%  %%%%%%%%%%%%%%%%% >%",
"%%  %%%%%%%%%%%%%%%%% >%",
"%%  %%%%%%%%%%%%%%%%% >%",
"%%  %%%%%%@+.+@%%%%%% >%",
"%%  %%%%%%+...+%%%%%% >%",
"%%  %%%%%%O...X%%%%%% >%",
"%%  %%%%%%=o.o*%%%%%% >%",
"%%  %%%%%%#-&;$%%%%%% >%",
"%%  %%%%%%%%%%%%%%%%% >%",
"%%  %%%%%%%%%%%%%%%%% >%",
"%%                    >%",
"%% %>>>>>>>>>>>>>>>>> >%",
"%% >,,,,,,,,,,,,,,,,, >%",
"%%%%%%%%%%%%%%%%%%%%%%%%",
"%%%%%%%%%%%%%%%%%%%%%%%%"
};
