/* XPM */
static char *btn_shade_hover_png[] = {
/* columns rows colors chars-per-pixel */
"24 24 35 1 ",
"  c #212A38",
". c #242B39",
"X c #2C2C3A",
"o c #342E3B",
"O c #382F3C",
"+ c #3B303D",
"@ c #3F303E",
"# c #5B090B",
"$ c #64090B",
"% c #750808",
"& c #770908",
"* c #790B0D",
"= c #68686F",
"- c #7D6D74",
"; c #7E6D74",
": c #7F6D74",
"> c #7F6D75",
", c #950808",
"< c #970909",
"1 c #980909",
"2 c #9A0908",
"3 c #9A0A0A",
"4 c #9B0A0A",
"5 c #8A2023",
"6 c #A55457",
"7 c #806D75",
"8 c #876E76",
"9 c #8C7077",
"0 c #8F7078",
"q c #B77678",
"w c #BD8183",
"e c #A0A0A7",
"r c #A0A1A8",
"t c #A1A1A8",
"y c white",
/* pixels */
"==                    y=",
"e= =eeeeeeeeeeeeeeeee ye",
"e= =eeeeeeeeeeeeeeeee ye",
"e= =eeeeeeeeeeeeeeeee ye",
"yy tyyyyyyyyyyyyyyyyy.yy",
"== X--;::>>>>>>>::;--Xr=",
"== o-;7890000000987;-or=",
"== +-:#$*56qwq65*$#:-+r=",
"== +-:%&,124332<,&%:-+r=",
"== o-;7890000000987;-or=",
"== X--;::>>>>>>>::;--Xr=",
"== .XO@@@@@@@@@@@@@OX.r=",
"== =rrrrrrrrrrrrrrrrr r=",
"== ryyyyyyyyyyyyyyyyy r=",
"========================",
"========================",
"========================",
"========================",
"========================",
"========================",
"========================",
"========================",
"========================",
"========================"
};
