/* XPM */
static char *button_minimize_push_png[] = {
/* columns rows colors chars-per-pixel */
"24 24 44 1 ",
"  c black",
". c #010000",
"X c #060102",
"o c #100404",
"O c #190506",
"+ c #1D0607",
"@ c #230808",
"# c #240808",
"$ c #250808",
"% c #260809",
"& c #290909",
"* c #340B0C",
"= c #390C0D",
"- c gray15",
"; c #212A38",
": c #222A38",
"> c #262B39",
", c #2F2D3A",
"< c #3A2F3D",
"1 c #3F303E",
"2 c #790B0B",
"3 c #780B0C",
"4 c #790D0D",
"5 c #7B0D0E",
"6 c #760E10",
"7 c #691213",
"8 c #6A1213",
"9 c #6D1113",
"0 c #68686F",
"q c #800A0B",
"w c #820A0A",
"e c #960705",
"r c #950A0B",
"t c #960A0A",
"y c #AF0D09",
"u c #BB110F",
"i c #D81414",
"p c #A14B4E",
"a c #BC4548",
"s c #BE7B7D",
"d c #A0A0A7",
"f c #A0A1A8",
"g c #DE8285",
"h c white",
/* pixels */
"00;;;;;;;;;;;;;;;;;;;;h0",
"d0;0-----------------;hd",
"d0;0-----------------;hd",
"d0;0-----------------;hd",
"hh;f00000000000000000;hh",
"00;;                 ;f0",
"00;;                 ;f0",
"00;;                 ;f0",
"00;;                 ;f0",
"00;;   .Xo+@@@+oX.   ;f0",
"00;;   XO@#$%$#@OX   ;f0",
"00;;   o@$&*=*&$@o   ;f0",
"00;;   +#&8psp7&#+   ;f0",
"00;;   @$*6aga6*$@   ;f0",
"00;;   @%=2uiu3=%@   ;f0",
"00;;   @$*5tyr4*$@   ;f0",
"00;;   +#&9weq9&#+   ;f0",
"00;;   o@$&*=*&$@o   ;f0",
"00;;   XO@#$%$#@OX   ;f0",
"00;;;;;:>,<111<,>:;;;;f0",
"00;0fffffffffffffffff;f0",
"00;fhhhhhhhhhhhhhhhhh;f0",
"000000000000000000000000",
"000000000000000000000000"
};
