/* XPM */
static char * menu_hilite_xpm[] = {
"2 16 3 1",
" 	c #262626",
".	c #000000",
"+	c #68686F",
"  ",
"..",
"..",
"..",
"..",
"..",
"..",
"..",
"..",
"..",
"..",
"  ",
"++",
"  ",
"  ",
"++"};
