/* XPM */
static char *raceface_Header_Act_png[] = {
/* columns rows colors chars-per-pixel */
"4 24 10 1 ",
"  c #1E3670",
". c #AE407F",
"X c #363F8E",
"o c #37468E",
"O c #BA6295",
"+ c #E056A0",
"@ c #FF72B0",
"# c #FF9DC8",
"$ c #FFB7DA",
"% c #FFDFD2",
/* pixels */
"%%%%",
"@@@@",
"$$$$",
"####",
"@@@@",
"@@@@",
"@@@@",
"@@@@",
"++++",
"OOOO",
"    ",
"XXXX",
"oooo",
"oooo",
"####",
"@@@@",
"++++",
"++++",
"++++",
"++++",
"++++",
"++++",
"++++",
"...."
};
