/* XPM */
static char *raceface_LHalf_Act_Norm_png[] = {
/* columns rows colors chars-per-pixel */
"24 24 17 1 ",
"  c #1E3670",
". c #8C4A74",
"X c #AE407F",
"o c #363F8E",
"O c #37468E",
"+ c #5A56B9",
"@ c #BF2B80",
"# c #FF3AA6",
"$ c #BA6295",
"% c #E056A0",
"& c #FF72B0",
"* c #807DCE",
"= c #F697B6",
"- c #F99AB7",
"; c #FF9DC8",
": c #FFB7DA",
"> c #FFDFD2",
/* pixels */
">>>>>>>>>>>>>>>>>>>>>>>>",
"&&&&&&&&&&&&&&&&&&&&&&&&",
"::;;;;;;;;;;;;;;;;;;;;::",
";&&$$$$$$$$$$$$$$$$$$&&;",
"&&$.                .$&&",
"&&$  %%%%%%          $&&",
"&&$ %%>>>>%%ooooooo  $&&",
"&&$ %------%OOOOOOOo $&&",
"%%$ %&&&&#&%OOOOOOOo $%%",
"$$ o%&&&##&%OOOOOOOOo $$",
"  oO%%&###%%OOOOOOOOOo  ",
"ooOo%%@@@@%%oOOOOOOOOOoo",
"OOOo%%=@@@%%oOOOOOOOOOOO",
"OOOo%%%=@@%%oOOOOOOOOOOO",
";;Oo%%%%=@%%oOOOOOOOOO;;",
"&>;o%%%%%=%%oO+O+OOOO;>&",
"%%;o%&%%%%&%o+++++OOO;%%",
"%%;o%&&&&&&%o+*+*++OO;%%",
"%%;Oo%%%%%%o******++O;%%",
"%%;>OooooooOOOOOOOOO>;%%",
"%%%;;;;;;;;;;;;;;;;;;%%%",
"%%%%%%%%%%%%%%%%%%%%%%%%",
"%%%%%%%%%%%%%%%%%%%%%%%%",
"XXXXXXXXXXXXXXXXXXXXXXXX"
};
