/* XPM */
static char *raceface_Empty_Act_Push_png[] = {
/* columns rows colors chars-per-pixel */
"24 24 13 1 ",
"  c #1E3670",
". c #8C4A74",
"X c #AE407F",
"o c #363F8E",
"O c #37468E",
"+ c #5A56B9",
"@ c #BA6295",
"# c #E056A0",
"$ c #FF72B0",
"% c #807DCE",
"& c #FF9DC8",
"* c #FFB7DA",
"= c #FFDFD2",
/* pixels */
"========================",
"$$$$$$$$$$$$$$$$$$$$$$$$",
"**&&&&&&&&&&&&&&&&&&&&**",
"&$$@@@@@@@@@@@@@@@@@@$$&",
"$$@.                .@$$",
"$$@                  @$$",
"$$@  oooooooooooooo  @$$",
"$$@ oOOOOOOOOOOOOOOo @$$",
"##@ oOOOOOOOOOOOOOOo @##",
"@@ oOOOOOOOOOOOOOOOOo @@",
"  oOOOOOOOOOOOOOOOOOOo  ",
"ooOOOOOOOOOOOOOOOOOOOOoo",
"OOOOOOOOOOOOOOOOOOOOOOOO",
"OOOOOOOOOOOOOOOOOOOOOOOO",
"&&OOOOOOOOOOOOOOOOOOOO&&",
"$=&OOOOO+O+O+O+O+OOOO&=$",
"##&OOO++++++++++++OOO&##",
"##&OO++%+%+%%+%+%++OO&##",
"##&O++%%%%%%%%%%%%++O&##",
"##&=OOOOOOOOOOOOOOOO=&##",
"###&&&&&&&&&&&&&&&&&&###",
"########################",
"########################",
"XXXXXXXXXXXXXXXXXXXXXXXX"
};
