/* XPM */
static char *raceface_Close_Inact_Norm_png[] = {
/* columns rows colors chars-per-pixel */
"24 24 17 1 ",
"  c #311924",
". c #3D2D28",
"X c #6D1033",
"o c #5F2333",
"O c #192242",
"+ c #182942",
"@ c #6B4549",
"# c #B01E5B",
"$ c #913954",
"% c #A85761",
"& c #B05564",
"* c #A77A6A",
"= c #AA7D6B",
"- c #B0986F",
"; c #B0807C",
": c #B09A8E",
"> c #B0C286",
/* pixels */
">>>>>>>>>>>>>>>>>>>>>>>>",
"&&&&&&&&&&&&&&&&&&&&&&&&",
"::;;;;;;;;;;;;;;;;;;;;::",
";&&@@@@@@@@@@@@@@@@@@&&;",
"&&@.                .@&&",
"&&@  $$$$$$$$$$$$$$  @&&",
"&&@ $$>>>>>>>>>>>>$$ @&&",
"&&@ $==%%======%%==$ @&&",
"$$@ $&&-##&&&&##-&&$ @$$",
"@@ O$&&&-##&&##-&&&$O @@",
"  O+$$&&&-####-&&&$$+O  ",
"OO++$$$$$$XXXX$$$$$$++OO",
"++++$$$$$$XXXX$$$$$$++++",
"++++$$$$$XX**XX$$$$$++++",
";;++$$$$XX*$$*XX$$$$++;;",
"&>;+$$$XX*$$$$*XX$$$+;>&",
"$$;+$&$**$$$$$$**$&$+;$$",
"$$;+$&&&&&&&&&&&&&&$+;$$",
"$$;++$$$$$$$$$$$$$$++;$$",
"$$;>++OOOOOOOOOOOO++>;$$",
"$$$;;;;;;;;;;;;;;;;;;$$$",
"$$$$$$$$$$$$$$$$$$$$$$$$",
"$$$$$$$$$$$$$$$$$$$$$$$$",
"oooooooooooooooooooooooo"
};
