/* XPM */
static char * FluxBox_RK3_buttons_xpm[] = {
"24 24 3 1",
" 	c None",
".	c #111822",
"+	c #FFFFFF",
"                        ",
"                        ",
"                        ",
"                        ",
"                        ",
"                        ",
"                        ",
"    .                   ",
"     +                  ",
"                        ",
"    .                   ",
"     +                  ",
"                        ",
"    .  .                ",
"     +  +               ",
"                        ",
"    .  .  .             ",
"     +  +  +            ",
"                        ",
"    .  .  .  .  .       ",
"     +  +  +  +  +      ",
"                        ",
"                        ",
"                        "};
