/* XPM */
static char *window_active[] = {
/* columns rows colors chars-per-pixel */
"24 24 14 1 ",
"  c #223C4E",
". c #2A537D",
"X c #94DE7C",
"o c #BBF367",
"O c #A2E27A",
"+ c #B3E878",
"@ c #CFFF76",
"# c #2C678D",
"$ c #2E879E",
"% c #3FA6A5",
"& c #4AB9AA",
"* c #5FCC86",
"= c #E5FF87",
"- c #FBFFA0",
/* pixels */
"%%%%#+o@=-%%%%%%%%%%%%%%",
"###.XO+o@%##############",
"%#.XO+o@%#%%%%%%%%%%%%%%",
"#.XO+o@%#$$$$$$$$$$$$$$$",
".XO+o@%#$$$$$$$$$$$$$$$#",
"XO+o@%#################.",
"O+o@%#################.X",
"+o@%#################.XO",
"o@%#################.XO+",
"@%#################.XO+o",
"%#################.XO+o@",
"#################.XO+o@%",
"................ &*XO+$.",
"............... &*XO+$..",
".............. &*XO+$...",
"............. &*XO+$....",
"............ &*XO+$.....",
"........... &*XO+$......",
".......... &*XO+$.......",
"......... &*XO+$........",
"       . &*XO+$.        ",
"      . &*XO+$.         ",
"...... &*XO+$...........",
"      $%&*X$            "
};
