/* XPM */
static char *fluxbox_simple_1a_titlebar_2_png[] = {
/* columns rows colors chars-per-pixel */
"3 28 2 1 ",
"  c #6AA1C3",
". c #D1E9EE",
/* pixels */
"   ",
"   ",
"   ",
"   ",
"   ",
"   ",
"   ",
"   ",
"   ",
"   ",
"   ",
"   ",
"   ",
"   ",
"   ",
"   ",
"   ",
"   ",
"   ",
"   ",
"   ",
"   ",
"...",
"...",
"...",
"...",
"...",
"..."
};
