/* XPM */
static char *btn_min_i_push_png[] = {
/* columns rows colors chars-per-pixel */
"24 24 10 1 ",
"  c #14151A",
". c #1D271D",
"X c #24293A",
"o c #2B4318",
"O c #3C7918",
"+ c #34466F",
"@ c #38637F",
"# c #579228",
"$ c #99E550",
"% c #639BFF",
/* pixels */
"OOOOOOOOOOOOOOOOOOOOOOOO",
"$$$$$$$$$$$$$$$$$$$$$$$$",
"########################",
"########################",
"######oooooooooooo######",
"OOOOOo............oOOOOO",
"OOOOo..o.o.o.o.o.o.oOOOO",
"OOOOo.o.o.o.o.o.o..oOOOO",
"OOOOo..............oOOOO",
"OOOOo..............oOOOO",
"ooooo..............ooooo",
"@@@@X              X@@@@",
"++++X  %           X++++",
"++++X  +%          X++++",
"++++X  ++%         X++++",
"++++X  +++%        X++++",
"++++X  ++++% X X X X++++",
"++++X X X X X X X  X++++",
"+++++X            X+++++",
"++++++XXXXXXXXXXXX++++++",
"++++++++++++++++++++++++",
"@@@@@@@@@@@@@@@@@@@@@@@@",
"%%%%%%%%%%%%%%%%%%%%%%%%",
"++++++++++++++++++++++++"
};
