/* XPM */
static char * btn_shade_a_xpm[] = {
"24 24 14 1",
" 	c None",
".	c #323C39",
"+	c #45283C",
"@	c #99E550",
"#	c #4B692F",
"$	c #9BADB7",
"%	c #CBDBFC",
"&	c #FFFFFF",
"*	c #696A6A",
"=	c #222034",
"-	c #6ABE30",
";	c #3F3F74",
">	c #5B6EE1",
",	c #639BFF",
".++++++++++++++++++++++@",
".#.$$$$$$$$$$$$$$$$$$#+@",
".+#$%&%&%&%&%&%&%&%&$.+@",
".#.$&&&&&&&&&&&&&&&&$#+@",
".+#$&%&%&%&%&%&%&%&%$.+@",
".+.$%%%%%%%%%%%%%%%%$.+@",
".+.$$$$$$$$$$$$$$$$$$.+@",
".+.$*$*$*$*$*$*$*$*$$.+@",
".+.$****************$.+@",
".+.$$$$$$$$$$$$$$$$$$.+@",
".======================-",
";>,,,,,,,,,,,,,,,,,,,>;,",
";,>>>>>>>>>>>>>>>>>>>>;,",
";,>>>>>>>>>>>>>>>>>>>>;,",
";,>>>>>>>>>>>>>>>>>>>>;,",
";,>>>>>>>>>>>>>>>>>>>>;,",
";,>>>>>>>>>>>>>>>>>>>>;,",
";,>>>>>>>>>>>>>>>>>>>>;,",
";,>>>>>>>>>>>>>>>>>>>>;,",
";,>>>>>>>>>>>>>>>>>>>>;,",
";,>>>>>>>>>>>>>>>>>>>>;,",
";,,,,,,,,,,,,,,,,,,,,,;,",
";,,,,,,,,,,,,,,,,,,,,,;,",
";,>>>>>>>>>>>>>>>>>>>>;,"};
