/* XPM */
static char *pin_i_png[] = {
/* columns rows colors chars-per-pixel */
"24 24 9 1 ",
"  c #24293A",
". c #2B4318",
"X c #3C7918",
"o c #34466F",
"O c #38637F",
"+ c #579228",
"@ c #99E550",
"# c #5B6EE1",
"$ c #639BFF",
/* pixels */
"XXXXXXXXXXXXXXXXXXXXXXXX",
"X@@@@@@@@@@@@@@@@@@@@@@@",
"X+++++++++++++++++++++++",
"X+++++++++++++++++++++++",
"X+++++++++++++++++++++++",
"XXXXXXXXXXXXXXXXXXXXXXXX",
"XXXXXXXXXXXXXXXXXXXXXXXX",
"XXXXXXX..........XXXXXXX",
"XXXXXXX.@@@@@@@@.XXXXXXX",
"XXXXXXX.@XXXXXX@.XXXXXXX",
"........X......X........",
"OOOOOOO #$$$$$$# OOOOOOO",
"ooooooo $oooooo$ ooooooo",
"ooooooo OooooooO ooooooo",
"ooooooo $oooooo$ ooooooo",
"ooooooo OOOOOOOO ooooooo",
"ooooooo          ooooooo",
"oooooooooooooooooooooooo",
"oooooooooooooooooooooooo",
"oooooooooooooooooooooooo",
"oooooooooooooooooooooooo",
"oOOOOOOOOOOOOOOOOOOOOOOO",
"o$$$$$$$$$$$$$$$$$$$$$$$",
"oooooooooooooooooooooooo"
};
