/* XPM */
static char * footerbg_a_xpm[] = {
"2 5 5 1",
" 	c None",
".	c #5B6EE1",
"+	c #222034",
"@	c #99E550",
"#	c #6ABE30",
"..",
"..",
"++",
"@@",
"##"};
