/* XPM */
static char * gripper_tall_a_xpm[] = {
"12 5 6 1",
" 	c None",
".	c #639BFF",
"+	c #5B6EE1",
"@	c #222034",
"#	c #99E550",
"$	c #6ABE30",
"............",
".++++++++++.",
"@@@@@@@@@@@@",
"############",
"#$$$$$$$$$$#"};
